<?xml version="1.0" encoding="utf-8"?>
<!-- Generator: Adobe Illustrator 25.4.1, SVG Export Plug-In . SVG Version: 6.00 Build 0)  -->
<svg version="1.1" id="レイヤー_1" xmlns="http://www.w3.org/2000/svg" xmlns:xlink="http://www.w3.org/1999/xlink" x="0px"
	 y="0px" viewBox="0 0 512 512" style="enable-background:new 0 0 512 512;" xml:space="preserve">
<g id="users_2_" transform="translate(0)">
	<path id="パス_1716" class="st0" d="M341.2,371.1v-23.5c31.4-17.7,56.9-61.7,56.9-105.8c0-70.7,0-128.1-85.4-128.1
		s-85.4,57.4-85.4,128.1c0,44.1,25.6,88.1,56.9,105.8v23.5c-96.6,7.9-170.8,55.3-170.8,112.7H512C512,426.4,437.8,379,341.2,371.1z"
		/>
	<path id="パス_1717" class="st0" d="M145.1,382.1c27.3-17.1,57.4-29.2,88.9-35.8c-6.9-8.1-12.9-16.9-18-26.2
		c-13.4-23.9-20.5-50.8-20.7-78.2c0-38.3,0-74.4,13.6-104c13.1-28.6,39.7-48.5,70.8-53.1c-7.5-34-27.6-56.4-80.8-56.4
		c-85.4,0-85.4,57.4-85.4,128.1c0,44.1,25.6,88.1,56.9,105.8v23.5C73.8,293.6-0.4,341-0.4,398.4h124.1
		C130.4,392.4,137.6,387,145.1,382.1z"/>
</g>
</svg>
