<svg id="レイヤー_1" data-name="レイヤー 1" xmlns="http://www.w3.org/2000/svg" viewBox="0 0 431.9 55.1"><defs><style>.cls-1{fill:#00bcef;}</style></defs><path class="cls-1" d="M0,2.46H9.84V54.13H0Z"/><path class="cls-1" d="M24.09,2.46h9.58L57.89,38.53V2.46h9.26V54.13H57.56L33.35,18.07V54.13H24.09Z"/><path class="cls-1" d="M81.39,2.46h9.85V54.13H81.39Z"/><path class="cls-1" d="M119.47,2.46h12l19,51.67H139.6L135.53,42h-20.4l-4.08,12.11H100.5ZM132.68,33.8,125.36,12,118,33.8Z"/><path class="cls-1" d="M159.68,2.46H177.1c19.42,0,26.42,11.33,26.42,25.84,0,17.41-9.91,25.83-26.42,25.83H159.68Zm9.84,8.29V45.84h7.38c10.49,0,16.32-5.44,16.32-17.54,0-10.23-4.21-17.55-16.51-17.55Z"/><path class="cls-1" d="M233.63,41a27,27,0,0,0,16.25,5.57c6.22,0,8.94-2.4,8.94-6,0-4.72-5-6.21-11.08-8.22C240.82,30,232.53,27.13,232.53,17c0-8.87,6.08-15.47,18.77-15.47,6,0,11.27,1.36,15.22,4l-2,9.06A21.82,21.82,0,0,0,251.24,10c-6.28,0-8.61,2.65-8.61,6,0,4.6,4.79,6,11.07,8,7.19,2.33,15.15,5.24,15.15,15.47,0,9.33-6.08,15.54-19.23,15.54-7.32,0-13.4-1.88-18.13-5.05Z"/><path class="cls-1" d="M292.81,55c-6.67,0-11.65-3.17-11.65-12.49V23.37h-6V16.51h6v-10l9.26-2.14V16.51h11.13v6.86H290.42V41.05c0,4,1.42,6,4.92,6a10.07,10.07,0,0,0,5.57-1.75l1,7.64A19.7,19.7,0,0,1,292.81,55Z"/><path class="cls-1" d="M308.74,35.29c0-12.5,8-19.62,18.59-19.62s18.51,7.12,18.51,19.62S337.94,55,327.33,55,308.74,47.85,308.74,35.29Zm27.59,0c0-7.32-3.31-11.92-9-11.92s-9.07,4.6-9.07,11.92,3.37,12,9.07,12S336.33,42.67,336.33,35.29Z"/><path class="cls-1" d="M373,55c-11.39,0-19.1-7.18-19.1-19.49,0-12.56,7.9-19.81,19.36-19.81,5.44,0,9.65,1.62,12.11,3.88l-2,7.64a12.86,12.86,0,0,0-9.26-3.75c-6.73,0-10.68,4.6-10.68,11.85s4,11.91,10.88,11.91a13.57,13.57,0,0,0,9.58-3.82L385.73,51C383.27,53,379,55,373,55Z"/><path class="cls-1" d="M395.38,0h9.33V32.63l14.37-16.12h11.33v.13L414.68,32.57,431.9,54v.13H420.57L408.72,38.59l-4,4.08V54.13h-9.33Z"/></svg>