<?xml version="1.0" encoding="utf-8"?>
<!-- Generator: Adobe Illustrator 25.4.1, SVG Export Plug-In . SVG Version: 6.00 Build 0)  -->
<svg version="1.1" id="レイヤー_1" xmlns="http://www.w3.org/2000/svg" xmlns:xlink="http://www.w3.org/1999/xlink" x="0px"
	 y="0px" viewBox="0 0 512 512" style="enable-background:new 0 0 512 512;" xml:space="preserve">
<g id="グループ_1657" transform="translate(-242 -240)">
	<path id="パス_1718" class="st0" d="M700.2,411.1c-27.5-36-59.8-68.1-95.9-95.5c-26.4-19.3-39.3-21.6-46.6-21.6H368.9
		c-22.6,0-41,18.3-41,40.9v376.2c0.1,22.6,18.4,40.9,41,40.9h311.9c22.6,0,41-18.3,41-40.9V457.6
		C721.9,450.3,719.6,437.5,700.2,411.1z M632.3,383.3c13.3,13.1,25.7,27,37.2,41.6h-79v-78.7C605.2,357.7,619.2,370,632.3,383.3
		L632.3,383.3z M689.1,711.1c-0.1,4.5-3.7,8.1-8.2,8.2H368.9c-4.5-0.1-8.1-3.7-8.2-8.2V334.9c0.1-4.5,3.7-8.1,8.2-8.2h188.8v114.5
		c0,9,7.4,16.4,16.4,16.4h114.9L689.1,711.1z"/>
	<path id="パス_1719" class="st0" d="M500.9,261.7c-21.7-19.3-32.2-21.6-38.3-21.6H307.7c-20.5,2.2-35.4,20.4-33.7,40.9v376.3
		c-1.1,17.9,10,34.3,26.9,40.1V281c-0.3-4.1,2.7-7.7,6.7-8.2h204.9C508.6,268.8,504.6,265.1,500.9,261.7L500.9,261.7z"/>
</g>
</svg>
