<?xml version="1.0" encoding="utf-8"?>
<!-- Generator: Adobe Illustrator 25.4.1, SVG Export Plug-In . SVG Version: 6.00 Build 0)  -->
<svg version="1.1" id="レイヤー_1" xmlns="http://www.w3.org/2000/svg" xmlns:xlink="http://www.w3.org/1999/xlink" x="0px"
	 y="0px" viewBox="0 0 512 512" style="enable-background:new 0 0 512 512;" xml:space="preserve">
<g id="グループ_1657" transform="translate(-242 -240)">
	<path id="パス_1718" class="st0" d="M684.2,397.4c-25.4-33.1-55-62.7-88.3-87.9c-24.3-17.8-36.2-19.8-42.9-19.8H379.2
		c-20.8,0-37.7,16.8-37.8,37.6v346.3c0.1,20.8,17,37.6,37.8,37.6h287.1c20.8,0,37.7-16.8,37.8-37.6V440.2
		C704.1,433.4,702,421.6,684.2,397.4z M621.6,371.8c12.2,12,23.7,24.8,34.3,38.3h-72.7v-72.4C596.7,348.2,609.5,359.6,621.6,371.8
		L621.6,371.8z M673.9,673.6c-0.1,4.1-3.4,7.5-7.6,7.5H379.2c-4.1,0-7.5-3.4-7.6-7.5V327.2c0.1-4.1,3.4-7.5,7.6-7.5H553v105.4
		c0,8.3,6.8,15.1,15.1,15.1h105.8L673.9,673.6z"/>
	<path id="パス_1719" class="st0" d="M500.6,259.8C480.6,242,471,240,465.4,240H322.8c-18.9,2-32.6,18.8-31,37.7v346.4
		c-1,16.5,9.2,31.6,24.8,36.9V277.7c-0.3-3.8,2.5-7.1,6.2-7.5h188.7C507.7,266.4,504,263,500.6,259.8L500.6,259.8z"/>
</g>
</svg>
