<svg id="レイヤー_1" data-name="レイヤー 1" xmlns="http://www.w3.org/2000/svg" xmlns:xlink="http://www.w3.org/1999/xlink" viewBox="0 0 100 50"><defs><style>.cls-1{fill:#fff;}.cls-2{fill:#5c6b6e;}.cls-3{isolation:isolate;}.cls-4{clip-path:url(#clip-path);}.cls-5{clip-path:url(#clip-path-3);}.cls-6{clip-path:url(#clip-path-4);}.cls-7{clip-path:url(#clip-path-5);}.cls-8{clip-path:url(#clip-path-6);}.cls-9{clip-path:url(#clip-path-7);}.cls-10{clip-path:url(#clip-path-8);}.cls-11{clip-path:url(#clip-path-9);}.cls-12{clip-path:url(#clip-path-10);}.cls-13{clip-path:url(#clip-path-11);}.cls-14{clip-path:url(#clip-path-12);}.cls-15{clip-path:url(#clip-path-13);}.cls-16{clip-path:url(#clip-path-14);}.cls-17{clip-path:url(#clip-path-15);}.cls-18{clip-path:url(#clip-path-16);}.cls-19{clip-path:url(#clip-path-17);}.cls-20{clip-path:url(#clip-path-18);}.cls-21{clip-path:url(#clip-path-19);}.cls-22{clip-path:url(#clip-path-20);}.cls-23{clip-path:url(#clip-path-21);}.cls-24{clip-path:url(#clip-path-22);}.cls-25{clip-path:url(#clip-path-23);}.cls-26{clip-path:url(#clip-path-24);}.cls-27{clip-path:url(#clip-path-25);}.cls-28{clip-path:url(#clip-path-26);}.cls-29{clip-path:url(#clip-path-27);}.cls-30{clip-path:url(#clip-path-28);}.cls-31{clip-path:url(#clip-path-29);}.cls-32{clip-path:url(#clip-path-30);}.cls-33{clip-path:url(#clip-path-31);}.cls-34{clip-path:url(#clip-path-32);}.cls-35{clip-path:url(#clip-path-33);}.cls-36{clip-path:url(#clip-path-34);}.cls-37{clip-path:url(#clip-path-35);}.cls-38{clip-path:url(#clip-path-36);}.cls-39{clip-path:url(#clip-path-37);}.cls-40{clip-path:url(#clip-path-38);}.cls-41{clip-path:url(#clip-path-39);}.cls-42{clip-path:url(#clip-path-40);}.cls-43{clip-path:url(#clip-path-41);}.cls-44{clip-path:url(#clip-path-42);}.cls-45{clip-path:url(#clip-path-43);}.cls-46{clip-path:url(#clip-path-44);}</style><clipPath id="clip-path"><path class="cls-1" d="M61.22,33.67a17.73,17.73,0,0,1-2.46-.15,7,7,0,0,1-1.68-.4,1.24,1.24,0,0,1-.77-.59c-.09-.22,0-.46.29-.71a3.51,3.51,0,0,1,1-.58,11.05,11.05,0,0,1,1.51-.51Q60,30.5,61,30.34c.68-.11,1.39-.2,2.12-.26l10.32-9.39h-.13l-.13,0h-.12l-.12,0L41.4,31a.56.56,0,0,1,.08.2.46.46,0,0,1,0,.2.65.65,0,0,1-.11.22,1.39,1.39,0,0,1-.21.22,4.57,4.57,0,0,1-1.36.71,15.24,15.24,0,0,1-2.11.59c-.8.16-1.67.3-2.58.39s-1.84.14-2.76.14a17.12,17.12,0,0,1-2.42-.15,6.54,6.54,0,0,1-1.64-.4,1.14,1.14,0,0,1-.72-.58c-.07-.22,0-.46.34-.72a4.11,4.11,0,0,1,1-.57,12.15,12.15,0,0,1,1.54-.5q.87-.23,1.89-.39c.68-.11,1.39-.2,2.11-.26L45.2,20.71a8.72,8.72,0,0,1-1.48-.25,3.24,3.24,0,0,1-.95-.37.63.63,0,0,1-.34-.48.71.71,0,0,1,.33-.55,4.57,4.57,0,0,1,1.32-.68,14.87,14.87,0,0,1,2.05-.56,25.16,25.16,0,0,1,2.49-.37,26.57,26.57,0,0,1,2.68-.14,18.09,18.09,0,0,1,2.36.13,7.11,7.11,0,0,1,1.62.37c.41.16.66.34.74.55s0,.44-.28.68a3.79,3.79,0,0,1-1,.56,12.52,12.52,0,0,1-1.49.48c-.56.14-1.19.27-1.85.38s-1.36.19-2.08.25L38.67,30.06l.16,0,.15,0,.15,0,.15,0L70.7,19.86a.44.44,0,0,1-.12-.19.38.38,0,0,1,0-.21.48.48,0,0,1,.09-.21.8.8,0,0,1,.2-.22,4,4,0,0,1,1.29-.69,13.35,13.35,0,0,1,2-.55,24.86,24.86,0,0,1,2.5-.38,26.82,26.82,0,0,1,2.7-.14,18.69,18.69,0,0,1,2.39.13,8.26,8.26,0,0,1,1.67.37,1.38,1.38,0,0,1,.79.56c.1.21,0,.44-.24.68a3.55,3.55,0,0,1-.95.56,10.59,10.59,0,0,1-1.47.48c-.56.15-1.19.28-1.85.39s-1.37.19-2.08.25L67.37,30.08a10.47,10.47,0,0,1,1.55.27,3.72,3.72,0,0,1,1,.39.76.76,0,0,1,.39.51.72.72,0,0,1-.3.58,4.14,4.14,0,0,1-1.33.72,14.9,14.9,0,0,1-2.09.59c-.8.16-1.68.3-2.59.39A25.62,25.62,0,0,1,61.22,33.67Z"/></clipPath><clipPath id="clip-path-3"><polygon class="cls-1" points="61.23 33.67 61.23 33.67 61.23 33.67 61.22 33.67 61.22 33.67 61.22 33.67 61.22 33.67 61.22 33.67 61.23 33.67 61.23 33.67"/></clipPath><clipPath id="clip-path-4"><path class="cls-1" d="M61.23,33.67h0A25.62,25.62,0,0,0,64,33.53a26,26,0,0,0,2.58-.39,14.52,14.52,0,0,0,2.09-.59A4.14,4.14,0,0,0,70,31.83a4.14,4.14,0,0,1-1.33.72,14.52,14.52,0,0,1-2.09.59,26,26,0,0,1-2.58.39A25.62,25.62,0,0,1,61.23,33.67Z"/></clipPath><clipPath id="clip-path-5"><polygon class="cls-1" points="70.01 31.83 70.01 31.83 70.01 31.83 70.01 31.83 70.01 31.83 70.01 31.83 70.01 31.83 70.01 31.83 70.01 31.83"/></clipPath><clipPath id="clip-path-6"><path class="cls-1" d="M70,31.83a.71.71,0,0,0,.3-.58.72.72,0,0,0-.39-.51,3.67,3.67,0,0,0-1-.39,10.09,10.09,0,0,0-1.54-.27,10.09,10.09,0,0,1,1.54.27,3.67,3.67,0,0,1,1,.39.72.72,0,0,1,.39.51A.71.71,0,0,1,70,31.83Z"/></clipPath><clipPath id="clip-path-7"><path class="cls-1" d="M67.37,30.08l10.27-9.39Z"/></clipPath><clipPath id="clip-path-8"><polygon class="cls-1" points="77.64 20.69 77.64 20.69 77.64 20.69 77.64 20.69 77.64 20.69 77.64 20.69 77.64 20.69 77.64 20.69 77.64 20.69"/></clipPath><clipPath id="clip-path-9"><path class="cls-1" d="M77.64,20.69c.72-.06,1.42-.15,2.09-.25s1.28-.24,1.84-.39A10.59,10.59,0,0,0,83,19.57,3.55,3.55,0,0,0,84,19a3.55,3.55,0,0,1-.95.56,10.59,10.59,0,0,1-1.47.48c-.56.15-1.18.28-1.84.39S78.36,20.63,77.64,20.69Z"/></clipPath><clipPath id="clip-path-10"><polygon class="cls-1" points="83.99 19.01 83.99 19.01 83.99 19.01 83.99 19.01 83.99 19.01 83.99 19.01 83.99 19.01 83.99 19.01 83.99 19.01"/></clipPath><clipPath id="clip-path-11"><path class="cls-1" d="M84,19c.27-.24.34-.47.24-.68a1.38,1.38,0,0,0-.79-.56,8.26,8.26,0,0,0-1.67-.37,18.69,18.69,0,0,0-2.39-.13,18.69,18.69,0,0,1,2.39.13,8.26,8.26,0,0,1,1.67.37,1.38,1.38,0,0,1,.79.56C84.33,18.54,84.26,18.77,84,19Z"/></clipPath><clipPath id="clip-path-12"><polygon class="cls-1" points="79.37 17.27 79.37 17.27 79.37 17.27 79.37 17.27 79.38 17.27 79.38 17.27 79.38 17.27 79.37 17.27 79.37 17.27 79.37 17.27"/></clipPath><clipPath id="clip-path-13"><path class="cls-1" d="M79.37,17.27h0a26.82,26.82,0,0,0-2.7.14,24.86,24.86,0,0,0-2.5.38,14.08,14.08,0,0,0-2,.55,4,4,0,0,0-1.29.69,4,4,0,0,1,1.29-.69,14.08,14.08,0,0,1,2-.55,24.86,24.86,0,0,1,2.5-.38A26.82,26.82,0,0,1,79.37,17.27Z"/></clipPath><clipPath id="clip-path-14"><polygon class="cls-1" points="70.86 19.03 70.86 19.03 70.86 19.03 70.86 19.03 70.86 19.03 70.86 19.03 70.86 19.03 70.86 19.03 70.86 19.03"/></clipPath><clipPath id="clip-path-15"><path class="cls-1" d="M70.86,19a.8.8,0,0,0-.2.22.48.48,0,0,0-.09.21.38.38,0,0,0,0,.21.44.44,0,0,0,.12.19.44.44,0,0,1-.12-.19.38.38,0,0,1,0-.21.48.48,0,0,1,.09-.21A.8.8,0,0,1,70.86,19Z"/></clipPath><clipPath id="clip-path-16"><path class="cls-1" d="M70.7,19.86,39.28,30.14Z"/></clipPath><clipPath id="clip-path-17"><polygon class="cls-1" points="39.28 30.14 39.28 30.14 39.28 30.14 39.28 30.14 39.28 30.14 39.28 30.14 39.28 30.14 39.28 30.14 39.28 30.14"/></clipPath><clipPath id="clip-path-18"><path class="cls-1" d="M39.28,30.14l-.15,0-.15,0-.15,0-.16,0,.16,0,.15,0,.15,0Z"/></clipPath><clipPath id="clip-path-19"><path class="cls-1" d="M38.67,30.06l10.67-9.35Z"/></clipPath><clipPath id="clip-path-20"><polygon class="cls-1" points="49.35 20.71 49.35 20.71 49.35 20.71 49.34 20.71 49.34 20.71 49.34 20.71 49.35 20.71 49.35 20.71 49.35 20.71"/></clipPath><clipPath id="clip-path-21"><path class="cls-1" d="M49.35,20.71c.71-.06,1.41-.15,2.08-.25s1.28-.24,1.85-.38a11.15,11.15,0,0,0,1.48-.49,3.52,3.52,0,0,0,1-.55,3.52,3.52,0,0,1-1,.55,11.15,11.15,0,0,1-1.48.49c-.57.14-1.19.27-1.85.38S50.06,20.65,49.35,20.71Z"/></clipPath><clipPath id="clip-path-22"><polygon class="cls-1" points="55.74 19.04 55.74 19.04 55.74 19.04 55.74 19.04 55.74 19.04 55.74 19.04 55.74 19.04 55.74 19.04 55.74 19.04"/></clipPath><clipPath id="clip-path-23"><path class="cls-1" d="M55.74,19c.28-.24.37-.47.28-.68s-.34-.39-.74-.55a7.11,7.11,0,0,0-1.62-.37,18.09,18.09,0,0,0-2.36-.13,18.09,18.09,0,0,1,2.36.13,7.11,7.11,0,0,1,1.62.37c.4.16.66.34.74.55S56,18.8,55.74,19Z"/></clipPath><clipPath id="clip-path-24"><polygon class="cls-1" points="51.29 17.31 51.29 17.31 51.3 17.31 51.3 17.31 51.3 17.31 51.3 17.31 51.3 17.31 51.3 17.31 51.3 17.31 51.29 17.31"/></clipPath><clipPath id="clip-path-25"><path class="cls-1" d="M51.29,17.31h0a26.22,26.22,0,0,0-2.67.14c-.88.09-1.73.22-2.5.37a14.71,14.71,0,0,0-2,.56,4.57,4.57,0,0,0-1.32.68,4.57,4.57,0,0,1,1.32-.68,14.71,14.71,0,0,1,2-.56c.77-.15,1.62-.28,2.5-.37A26.22,26.22,0,0,1,51.29,17.31Z"/></clipPath><clipPath id="clip-path-26"><polygon class="cls-1" points="42.75 19.06 42.75 19.06 42.76 19.06 42.76 19.06 42.76 19.06 42.76 19.06 42.76 19.06 42.76 19.06 42.76 19.06 42.75 19.06"/></clipPath><clipPath id="clip-path-27"><path class="cls-1" d="M42.75,19.06h0a.7.7,0,0,0-.32.55.63.63,0,0,0,.34.48,3.24,3.24,0,0,0,.95.37,8.72,8.72,0,0,0,1.48.25,8.72,8.72,0,0,1-1.48-.25,3.24,3.24,0,0,1-.95-.37.63.63,0,0,1-.34-.48A.7.7,0,0,1,42.75,19.06Z"/></clipPath><clipPath id="clip-path-28"><path class="cls-1" d="M45.2,20.71,34.46,30.06Z"/></clipPath><clipPath id="clip-path-29"><polygon class="cls-1" points="34.46 30.06 34.46 30.06 34.46 30.06 34.46 30.06 34.47 30.06 34.46 30.06 34.46 30.06 34.46 30.06 34.46 30.06"/></clipPath><clipPath id="clip-path-30"><path class="cls-1" d="M34.46,30.06c-.73.06-1.44.15-2.12.26s-1.31.24-1.89.39a12,12,0,0,0-1.53.5,4.11,4.11,0,0,0-1,.57,4.11,4.11,0,0,1,1-.57,12,12,0,0,1,1.53-.5c.58-.15,1.22-.28,1.89-.39S33.73,30.12,34.46,30.06Z"/></clipPath><clipPath id="clip-path-31"><polygon class="cls-1" points="27.89 31.79 27.89 31.79 27.89 31.79 27.89 31.79 27.89 31.78 27.89 31.79 27.89 31.79 27.89 31.79 27.89 31.79"/></clipPath><clipPath id="clip-path-32"><path class="cls-1" d="M27.89,31.79c-.3.25-.4.49-.33.71s.32.42.72.59a7.19,7.19,0,0,0,1.64.39,17.12,17.12,0,0,0,2.42.15,17.12,17.12,0,0,1-2.42-.15,7.19,7.19,0,0,1-1.64-.39c-.4-.17-.65-.37-.72-.59S27.59,32,27.89,31.79Z"/></clipPath><clipPath id="clip-path-33"><polygon class="cls-1" points="32.35 33.63 32.35 33.63 32.35 33.63 32.34 33.63 32.34 33.63 32.34 33.63 32.34 33.63 32.34 33.63 32.35 33.63 32.35 33.63"/></clipPath><clipPath id="clip-path-34"><path class="cls-1" d="M32.35,33.63h0c.92,0,1.85-.05,2.76-.14s1.78-.23,2.57-.39a15.82,15.82,0,0,0,2.12-.59,4.63,4.63,0,0,0,1.35-.71,4.63,4.63,0,0,1-1.35.71,15.82,15.82,0,0,1-2.12.59c-.79.16-1.67.3-2.57.39S33.27,33.63,32.35,33.63Z"/></clipPath><clipPath id="clip-path-35"><polygon class="cls-1" points="41.15 31.8 41.15 31.8 41.15 31.8 41.15 31.8 41.15 31.8 41.15 31.8 41.15 31.8 41.15 31.8 41.15 31.8"/></clipPath><clipPath id="clip-path-36"><path class="cls-1" d="M41.15,31.8a2.27,2.27,0,0,0,.22-.22.84.84,0,0,0,.1-.22.46.46,0,0,0,0-.2.56.56,0,0,0-.08-.2.56.56,0,0,1,.08.2.46.46,0,0,1,0,.2.84.84,0,0,1-.1.22A2.27,2.27,0,0,1,41.15,31.8Z"/></clipPath><clipPath id="clip-path-37"><path class="cls-1" d="M41.4,31,72.94,20.63Z"/></clipPath><clipPath id="clip-path-38"><polygon class="cls-1" points="72.94 20.63 72.94 20.63 72.94 20.63 72.94 20.63 72.94 20.63 72.94 20.63 72.94 20.63 72.94 20.63 72.94 20.63"/></clipPath><clipPath id="clip-path-39"><path class="cls-1" d="M72.94,20.63l.12,0h.13l.12,0h0l-.12,0h-.13Z"/></clipPath><clipPath id="clip-path-40"><path class="cls-1" d="M73.44,20.69,63.12,30.08Z"/></clipPath><clipPath id="clip-path-41"><polygon class="cls-1" points="63.11 30.08 63.12 30.08 63.12 30.08 63.12 30.08 63.12 30.08 63.12 30.08 63.12 30.08 63.12 30.08 63.11 30.08"/></clipPath><clipPath id="clip-path-42"><path class="cls-1" d="M63.11,30.08c-.73.06-1.44.15-2.12.26s-1.31.24-1.88.39a11.22,11.22,0,0,0-1.52.51,3.59,3.59,0,0,0-1,.58,3.59,3.59,0,0,1,1-.58,11.22,11.22,0,0,1,1.52-.51c.57-.15,1.21-.28,1.88-.39S62.38,30.14,63.11,30.08Z"/></clipPath><clipPath id="clip-path-43"><polygon class="cls-1" points="56.59 31.82 56.59 31.82 56.59 31.82 56.59 31.82 56.6 31.82 56.59 31.82 56.59 31.82 56.59 31.82 56.59 31.82"/></clipPath><clipPath id="clip-path-44"><path class="cls-1" d="M56.59,31.82c-.28.25-.37.5-.28.72a1.27,1.27,0,0,0,.77.58,7,7,0,0,0,1.69.4,17.48,17.48,0,0,0,2.45.15,17.48,17.48,0,0,1-2.45-.15,7,7,0,0,1-1.69-.4,1.27,1.27,0,0,1-.77-.58C56.22,32.32,56.31,32.07,56.59,31.82Z"/></clipPath></defs><rect class="cls-2" width="100" height="50" rx="12"/><g class="cls-3"><g class="cls-3"><path class="cls-1" d="M61.22,33.67a17.73,17.73,0,0,1-2.46-.15,7,7,0,0,1-1.68-.4,1.24,1.24,0,0,1-.77-.59c-.09-.22,0-.46.29-.71a3.51,3.51,0,0,1,1-.58,11.05,11.05,0,0,1,1.51-.51Q60,30.5,61,30.34c.68-.11,1.39-.2,2.12-.26l10.32-9.39h-.13l-.13,0h-.12l-.12,0L41.4,31a.56.56,0,0,1,.08.2.46.46,0,0,1,0,.2.65.65,0,0,1-.11.22,1.39,1.39,0,0,1-.21.22,4.57,4.57,0,0,1-1.36.71,15.24,15.24,0,0,1-2.11.59c-.8.16-1.67.3-2.58.39s-1.84.14-2.76.14a17.12,17.12,0,0,1-2.42-.15,6.54,6.54,0,0,1-1.64-.4,1.14,1.14,0,0,1-.72-.58c-.07-.22,0-.46.34-.72a4.11,4.11,0,0,1,1-.57,12.15,12.15,0,0,1,1.54-.5q.87-.23,1.89-.39c.68-.11,1.39-.2,2.11-.26L45.2,20.71a8.72,8.72,0,0,1-1.48-.25,3.24,3.24,0,0,1-.95-.37.63.63,0,0,1-.34-.48.71.71,0,0,1,.33-.55,4.57,4.57,0,0,1,1.32-.68,14.87,14.87,0,0,1,2.05-.56,25.16,25.16,0,0,1,2.49-.37,26.57,26.57,0,0,1,2.68-.14,18.09,18.09,0,0,1,2.36.13,7.11,7.11,0,0,1,1.62.37c.41.16.66.34.74.55s0,.44-.28.68a3.79,3.79,0,0,1-1,.56,12.52,12.52,0,0,1-1.49.48c-.56.14-1.19.27-1.85.38s-1.36.19-2.08.25L38.67,30.06l.16,0,.15,0,.15,0,.15,0L70.7,19.86a.44.44,0,0,1-.12-.19.38.38,0,0,1,0-.21.48.48,0,0,1,.09-.21.8.8,0,0,1,.2-.22,4,4,0,0,1,1.29-.69,13.35,13.35,0,0,1,2-.55,24.86,24.86,0,0,1,2.5-.38,26.82,26.82,0,0,1,2.7-.14,18.69,18.69,0,0,1,2.39.13,8.26,8.26,0,0,1,1.67.37,1.38,1.38,0,0,1,.79.56c.1.21,0,.44-.24.68a3.55,3.55,0,0,1-.95.56,10.59,10.59,0,0,1-1.47.48c-.56.15-1.19.28-1.85.39s-1.37.19-2.08.25L67.37,30.08a10.47,10.47,0,0,1,1.55.27,3.72,3.72,0,0,1,1,.39.76.76,0,0,1,.39.51.72.72,0,0,1-.3.58,4.14,4.14,0,0,1-1.33.72,14.9,14.9,0,0,1-2.09.59c-.8.16-1.68.3-2.59.39A25.62,25.62,0,0,1,61.22,33.67Z"/><g class="cls-4"><path class="cls-1" d="M61.22,33.67a17.73,17.73,0,0,1-2.46-.15,7,7,0,0,1-1.68-.4,1.24,1.24,0,0,1-.77-.59c-.09-.22,0-.46.29-.71a3.51,3.51,0,0,1,1-.58,11.05,11.05,0,0,1,1.51-.51Q60,30.5,61,30.34c.68-.11,1.39-.2,2.12-.26l10.32-9.39h-.13l-.13,0h-.12l-.12,0L41.4,31a.56.56,0,0,1,.08.2.46.46,0,0,1,0,.2.65.65,0,0,1-.11.22,1.39,1.39,0,0,1-.21.22,4.57,4.57,0,0,1-1.36.71,15.24,15.24,0,0,1-2.11.59c-.8.16-1.67.3-2.58.39s-1.84.14-2.76.14a17.12,17.12,0,0,1-2.42-.15,6.54,6.54,0,0,1-1.64-.4,1.14,1.14,0,0,1-.72-.58c-.07-.22,0-.46.34-.72a4.11,4.11,0,0,1,1-.57,12.15,12.15,0,0,1,1.54-.5q.87-.23,1.89-.39c.68-.11,1.39-.2,2.11-.26L45.2,20.71a8.72,8.72,0,0,1-1.48-.25,3.24,3.24,0,0,1-.95-.37.63.63,0,0,1-.34-.48.71.71,0,0,1,.33-.55,4.57,4.57,0,0,1,1.32-.68,14.87,14.87,0,0,1,2.05-.56,25.16,25.16,0,0,1,2.49-.37,26.57,26.57,0,0,1,2.68-.14,18.09,18.09,0,0,1,2.36.13,7.11,7.11,0,0,1,1.62.37c.41.16.66.34.74.55s0,.44-.28.68a3.79,3.79,0,0,1-1,.56,12.52,12.52,0,0,1-1.49.48c-.56.14-1.19.27-1.85.38s-1.36.19-2.08.25L38.67,30.06l.16,0,.15,0,.15,0,.15,0L70.7,19.86a.44.44,0,0,1-.12-.19.38.38,0,0,1,0-.21.48.48,0,0,1,.09-.21.8.8,0,0,1,.2-.22,4,4,0,0,1,1.29-.69,13.35,13.35,0,0,1,2-.55,24.86,24.86,0,0,1,2.5-.38,26.82,26.82,0,0,1,2.7-.14,18.69,18.69,0,0,1,2.39.13,8.26,8.26,0,0,1,1.67.37,1.38,1.38,0,0,1,.79.56c.1.21,0,.44-.24.68a3.55,3.55,0,0,1-.95.56,10.59,10.59,0,0,1-1.47.48c-.56.15-1.19.28-1.85.39s-1.37.19-2.08.25L67.37,30.08a10.47,10.47,0,0,1,1.55.27,3.72,3.72,0,0,1,1,.39.76.76,0,0,1,.39.51.72.72,0,0,1-.3.58,4.14,4.14,0,0,1-1.33.72,14.9,14.9,0,0,1-2.09.59c-.8.16-1.68.3-2.59.39A25.62,25.62,0,0,1,61.22,33.67Z"/></g></g><g class="cls-3"><path class="cls-1" d="M61.22,33.67a17.73,17.73,0,0,1-2.46-.15,7,7,0,0,1-1.68-.4,1.24,1.24,0,0,1-.77-.59c-.09-.22,0-.46.29-.71a3.51,3.51,0,0,1,1-.58,11.05,11.05,0,0,1,1.51-.51Q60,30.5,61,30.34c.68-.11,1.39-.2,2.12-.26l10.32-9.39h-.13l-.13,0h-.12l-.12,0L41.4,31a.56.56,0,0,1,.08.2.46.46,0,0,1,0,.2.65.65,0,0,1-.11.22,1.39,1.39,0,0,1-.21.22,4.57,4.57,0,0,1-1.36.71,15.24,15.24,0,0,1-2.11.59c-.8.16-1.67.3-2.58.39s-1.84.14-2.76.14a17.12,17.12,0,0,1-2.42-.15,6.54,6.54,0,0,1-1.64-.4,1.14,1.14,0,0,1-.72-.58c-.07-.22,0-.46.34-.72a4.11,4.11,0,0,1,1-.57,12.15,12.15,0,0,1,1.54-.5q.87-.23,1.89-.39c.68-.11,1.39-.2,2.11-.26L45.2,20.71a8.72,8.72,0,0,1-1.48-.25,3.24,3.24,0,0,1-.95-.37.63.63,0,0,1-.34-.48.71.71,0,0,1,.33-.55,4.57,4.57,0,0,1,1.32-.68,14.87,14.87,0,0,1,2.05-.56,25.16,25.16,0,0,1,2.49-.37,26.57,26.57,0,0,1,2.68-.14,18.09,18.09,0,0,1,2.36.13,7.11,7.11,0,0,1,1.62.37c.41.16.66.34.74.55s0,.44-.28.68a3.79,3.79,0,0,1-1,.56,12.52,12.52,0,0,1-1.49.48c-.56.14-1.19.27-1.85.38s-1.36.19-2.08.25L38.67,30.06l.16,0,.15,0,.15,0,.15,0L70.7,19.86a.44.44,0,0,1-.12-.19.38.38,0,0,1,0-.21.48.48,0,0,1,.09-.21.8.8,0,0,1,.2-.22,4,4,0,0,1,1.29-.69,13.35,13.35,0,0,1,2-.55,24.86,24.86,0,0,1,2.5-.38,26.82,26.82,0,0,1,2.7-.14,18.69,18.69,0,0,1,2.39.13,8.26,8.26,0,0,1,1.67.37,1.38,1.38,0,0,1,.79.56c.1.21,0,.44-.24.68a3.55,3.55,0,0,1-.95.56,10.59,10.59,0,0,1-1.47.48c-.56.15-1.19.28-1.85.39s-1.37.19-2.08.25L67.37,30.08a10.47,10.47,0,0,1,1.55.27,3.72,3.72,0,0,1,1,.39.76.76,0,0,1,.39.51.72.72,0,0,1-.3.58,4.14,4.14,0,0,1-1.33.72,14.9,14.9,0,0,1-2.09.59c-.8.16-1.68.3-2.59.39A25.62,25.62,0,0,1,61.22,33.67Z"/><g class="cls-4"><path class="cls-1" d="M61.22,33.67a17.73,17.73,0,0,1-2.46-.15,7,7,0,0,1-1.68-.4,1.24,1.24,0,0,1-.77-.59c-.09-.22,0-.46.29-.71a3.51,3.51,0,0,1,1-.58,11.05,11.05,0,0,1,1.51-.51Q60,30.5,61,30.34c.68-.11,1.39-.2,2.12-.26l10.32-9.39h-.13l-.13,0h-.12l-.12,0L41.4,31a.56.56,0,0,1,.08.2.46.46,0,0,1,0,.2.65.65,0,0,1-.11.22,1.39,1.39,0,0,1-.21.22,4.57,4.57,0,0,1-1.36.71,15.24,15.24,0,0,1-2.11.59c-.8.16-1.67.3-2.58.39s-1.84.14-2.76.14a17.12,17.12,0,0,1-2.42-.15,6.54,6.54,0,0,1-1.64-.4,1.14,1.14,0,0,1-.72-.58c-.07-.22,0-.46.34-.72a4.11,4.11,0,0,1,1-.57,12.15,12.15,0,0,1,1.54-.5q.87-.23,1.89-.39c.68-.11,1.39-.2,2.11-.26L45.2,20.71a8.72,8.72,0,0,1-1.48-.25,3.24,3.24,0,0,1-.95-.37.63.63,0,0,1-.34-.48.71.71,0,0,1,.33-.55,4.57,4.57,0,0,1,1.32-.68,14.87,14.87,0,0,1,2.05-.56,25.16,25.16,0,0,1,2.49-.37,26.57,26.57,0,0,1,2.68-.14,18.09,18.09,0,0,1,2.36.13,7.11,7.11,0,0,1,1.62.37c.41.16.66.34.74.55s0,.44-.28.68a3.79,3.79,0,0,1-1,.56,12.52,12.52,0,0,1-1.49.48c-.56.14-1.19.27-1.85.38s-1.36.19-2.08.25L38.67,30.06l.16,0,.15,0,.15,0,.15,0L70.7,19.86a.44.44,0,0,1-.12-.19.38.38,0,0,1,0-.21.48.48,0,0,1,.09-.21.8.8,0,0,1,.2-.22,4,4,0,0,1,1.29-.69,13.35,13.35,0,0,1,2-.55,24.86,24.86,0,0,1,2.5-.38,26.82,26.82,0,0,1,2.7-.14,18.69,18.69,0,0,1,2.39.13,8.26,8.26,0,0,1,1.67.37,1.38,1.38,0,0,1,.79.56c.1.21,0,.44-.24.68a3.55,3.55,0,0,1-.95.56,10.59,10.59,0,0,1-1.47.48c-.56.15-1.19.28-1.85.39s-1.37.19-2.08.25L67.37,30.08a10.47,10.47,0,0,1,1.55.27,3.72,3.72,0,0,1,1,.39.76.76,0,0,1,.39.51.72.72,0,0,1-.3.58,4.14,4.14,0,0,1-1.33.72,14.9,14.9,0,0,1-2.09.59c-.8.16-1.68.3-2.59.39A25.62,25.62,0,0,1,61.22,33.67Z"/></g></g><g class="cls-3"><polygon class="cls-1" points="61.23 33.67 61.23 33.67 61.23 33.67 61.22 33.67 61.22 33.67 61.22 33.67 61.22 33.67 61.22 33.67 61.23 33.67 61.23 33.67"/><g class="cls-5"><g class="cls-3"><path class="cls-1" d="M61.22,33.67A25.62,25.62,0,0,0,64,33.53c.91-.09,1.79-.23,2.59-.39a14.9,14.9,0,0,0,2.09-.59A4.14,4.14,0,0,0,70,31.83a4.14,4.14,0,0,1-1.33.72,14.9,14.9,0,0,1-2.09.59c-.8.16-1.68.3-2.59.39A25.62,25.62,0,0,1,61.22,33.67Z"/></g><polygon class="cls-1" points="61.23 33.67 61.23 33.67 61.23 33.67 61.22 33.67 61.22 33.67 61.22 33.67 61.22 33.67 61.22 33.67 61.23 33.67 61.23 33.67"/></g></g><g class="cls-3"><path class="cls-1" d="M61.23,33.67h0A25.62,25.62,0,0,0,64,33.53a26,26,0,0,0,2.58-.39,14.52,14.52,0,0,0,2.09-.59A4.14,4.14,0,0,0,70,31.83a4.14,4.14,0,0,1-1.33.72,14.52,14.52,0,0,1-2.09.59,26,26,0,0,1-2.58.39A25.62,25.62,0,0,1,61.23,33.67Z"/><g class="cls-6"><g class="cls-3"><path class="cls-1" d="M61.22,33.67A25.62,25.62,0,0,0,64,33.53c.91-.09,1.79-.23,2.59-.39a14.9,14.9,0,0,0,2.09-.59A4.14,4.14,0,0,0,70,31.83a4.14,4.14,0,0,1-1.33.72,14.9,14.9,0,0,1-2.09.59c-.8.16-1.68.3-2.59.39A25.62,25.62,0,0,1,61.22,33.67Z"/><line class="cls-1" x1="64.9" y1="33.43" x2="64.9" y2="33.43"/><line class="cls-1" x1="68.06" y1="32.76" x2="68.06" y2="32.76"/></g><path class="cls-1" d="M61.23,33.67h0A25.62,25.62,0,0,0,64,33.53a26,26,0,0,0,2.58-.39,14.52,14.52,0,0,0,2.09-.59A4.14,4.14,0,0,0,70,31.83a4.14,4.14,0,0,1-1.33.72,14.52,14.52,0,0,1-2.09.59,26,26,0,0,1-2.58.39A25.62,25.62,0,0,1,61.23,33.67Z"/></g></g><g class="cls-3"><polygon class="cls-1" points="70.01 31.83 70.01 31.83 70.01 31.83 70.01 31.83 70.01 31.83 70.01 31.83 70.01 31.83 70.01 31.83 70.01 31.83"/><g class="cls-7"><g class="cls-3"><path class="cls-1" d="M70,31.83a.72.72,0,0,0,.3-.58.76.76,0,0,0-.39-.51,3.72,3.72,0,0,0-1-.39,10.47,10.47,0,0,0-1.55-.27,10.47,10.47,0,0,1,1.55.27,3.72,3.72,0,0,1,1,.39.76.76,0,0,1,.39.51A.72.72,0,0,1,70,31.83Z"/></g><polygon class="cls-1" points="70.01 31.83 70.01 31.83 70.01 31.83 70.01 31.83 70.01 31.83 70.01 31.83 70.01 31.83 70.01 31.83 70.01 31.83"/></g></g><g class="cls-3"><path class="cls-1" d="M70,31.83a.71.71,0,0,0,.3-.58.72.72,0,0,0-.39-.51,3.67,3.67,0,0,0-1-.39,10.09,10.09,0,0,0-1.54-.27,10.09,10.09,0,0,1,1.54.27,3.67,3.67,0,0,1,1,.39.72.72,0,0,1,.39.51A.71.71,0,0,1,70,31.83Z"/><g class="cls-8"><g class="cls-3"><path class="cls-1" d="M70,31.83a.72.72,0,0,0,.3-.58.76.76,0,0,0-.39-.51,3.72,3.72,0,0,0-1-.39,10.47,10.47,0,0,0-1.55-.27,10.47,10.47,0,0,1,1.55.27,3.72,3.72,0,0,1,1,.39.76.76,0,0,1,.39.51A.72.72,0,0,1,70,31.83Z"/></g><path class="cls-1" d="M70,31.83a.71.71,0,0,0,.3-.58.72.72,0,0,0-.39-.51,3.67,3.67,0,0,0-1-.39,10.09,10.09,0,0,0-1.54-.27,10.09,10.09,0,0,1,1.54.27,3.67,3.67,0,0,1,1,.39.72.72,0,0,1,.39.51A.71.71,0,0,1,70,31.83Z"/></g></g><g class="cls-3"><path class="cls-1" d="M67.37,30.08l10.27-9.39Z"/><g class="cls-9"><path class="cls-1" d="M67.37,30.08l10.27-9.39Z"/></g></g><g class="cls-3"><polygon class="cls-1" points="77.64 20.69 77.64 20.69 77.64 20.69 77.64 20.69 77.64 20.69 77.64 20.69 77.64 20.69 77.64 20.69 77.64 20.69"/><g class="cls-10"><g class="cls-3"><path class="cls-1" d="M77.64,20.69c.71-.06,1.42-.15,2.08-.25s1.29-.24,1.85-.39A10.59,10.59,0,0,0,83,19.57,3.55,3.55,0,0,0,84,19a3.55,3.55,0,0,1-.95.56,10.59,10.59,0,0,1-1.47.48c-.56.15-1.19.28-1.85.39S78.35,20.63,77.64,20.69Z"/></g><polygon class="cls-1" points="77.64 20.69 77.64 20.69 77.64 20.69 77.64 20.69 77.64 20.69 77.64 20.69 77.64 20.69 77.64 20.69 77.64 20.69"/></g></g><g class="cls-3"><path class="cls-1" d="M77.64,20.69c.72-.06,1.42-.15,2.09-.25s1.28-.24,1.84-.39A10.59,10.59,0,0,0,83,19.57,3.55,3.55,0,0,0,84,19a3.55,3.55,0,0,1-.95.56,10.59,10.59,0,0,1-1.47.48c-.56.15-1.18.28-1.84.39S78.36,20.63,77.64,20.69Z"/><g class="cls-11"><g class="cls-3"><path class="cls-1" d="M77.64,20.69c.71-.06,1.42-.15,2.08-.25s1.29-.24,1.85-.39A10.59,10.59,0,0,0,83,19.57,3.55,3.55,0,0,0,84,19a3.55,3.55,0,0,1-.95.56,10.59,10.59,0,0,1-1.47.48c-.56.15-1.19.28-1.85.39S78.35,20.63,77.64,20.69Z"/></g><path class="cls-1" d="M77.64,20.69c.72-.06,1.42-.15,2.09-.25s1.28-.24,1.84-.39A10.59,10.59,0,0,0,83,19.57,3.55,3.55,0,0,0,84,19a3.55,3.55,0,0,1-.95.56,10.59,10.59,0,0,1-1.47.48c-.56.15-1.18.28-1.84.39S78.36,20.63,77.64,20.69Z"/></g></g><g class="cls-3"><polygon class="cls-1" points="83.99 19.01 83.99 19.01 83.99 19.01 83.99 19.01 83.99 19.01 83.99 19.01 83.99 19.01 83.99 19.01 83.99 19.01"/><g class="cls-12"><g class="cls-3"><path class="cls-1" d="M84,19c.27-.24.34-.47.24-.68a1.38,1.38,0,0,0-.79-.56,8.26,8.26,0,0,0-1.67-.37,18.69,18.69,0,0,0-2.39-.13,18.69,18.69,0,0,1,2.39.13,8.26,8.26,0,0,1,1.67.37,1.38,1.38,0,0,1,.79.56C84.33,18.54,84.26,18.77,84,19Z"/></g><polygon class="cls-1" points="83.99 19.01 83.99 19.01 83.99 19.01 83.99 19.01 83.99 19.01 83.99 19.01 83.99 19.01 83.99 19.01 83.99 19.01"/></g></g><g class="cls-3"><path class="cls-1" d="M84,19c.27-.24.34-.47.24-.68a1.38,1.38,0,0,0-.79-.56,8.26,8.26,0,0,0-1.67-.37,18.69,18.69,0,0,0-2.39-.13,18.69,18.69,0,0,1,2.39.13,8.26,8.26,0,0,1,1.67.37,1.38,1.38,0,0,1,.79.56C84.33,18.54,84.26,18.77,84,19Z"/><g class="cls-13"><g class="cls-3"><path class="cls-1" d="M84,19c.27-.24.34-.47.24-.68a1.38,1.38,0,0,0-.79-.56,8.26,8.26,0,0,0-1.67-.37,18.69,18.69,0,0,0-2.39-.13,18.69,18.69,0,0,1,2.39.13,8.26,8.26,0,0,1,1.67.37,1.38,1.38,0,0,1,.79.56C84.33,18.54,84.26,18.77,84,19Z"/></g><path class="cls-1" d="M84,19c.27-.24.34-.47.24-.68a1.38,1.38,0,0,0-.79-.56,8.26,8.26,0,0,0-1.67-.37,18.69,18.69,0,0,0-2.39-.13,18.69,18.69,0,0,1,2.39.13,8.26,8.26,0,0,1,1.67.37,1.38,1.38,0,0,1,.79.56C84.33,18.54,84.26,18.77,84,19Z"/></g></g><g class="cls-3"><polygon class="cls-1" points="79.37 17.27 79.37 17.27 79.37 17.27 79.37 17.27 79.38 17.27 79.38 17.27 79.38 17.27 79.37 17.27 79.37 17.27 79.37 17.27"/><g class="cls-14"><g class="cls-3"><path class="cls-1" d="M79.38,17.27a26.82,26.82,0,0,0-2.7.14,24.86,24.86,0,0,0-2.5.38,13.35,13.35,0,0,0-2,.55,4,4,0,0,0-1.29.69,4,4,0,0,1,1.29-.69,13.35,13.35,0,0,1,2-.55,24.86,24.86,0,0,1,2.5-.38A26.82,26.82,0,0,1,79.38,17.27Z"/></g><polygon class="cls-1" points="79.37 17.27 79.37 17.27 79.37 17.27 79.37 17.27 79.38 17.27 79.38 17.27 79.38 17.27 79.37 17.27 79.37 17.27 79.37 17.27"/></g></g><g class="cls-3"><path class="cls-1" d="M79.37,17.27h0a26.82,26.82,0,0,0-2.7.14,24.86,24.86,0,0,0-2.5.38,14.08,14.08,0,0,0-2,.55,4,4,0,0,0-1.29.69,4,4,0,0,1,1.29-.69,14.08,14.08,0,0,1,2-.55,24.86,24.86,0,0,1,2.5-.38A26.82,26.82,0,0,1,79.37,17.27Z"/><g class="cls-15"><g class="cls-3"><path class="cls-1" d="M79.38,17.27a26.82,26.82,0,0,0-2.7.14,24.86,24.86,0,0,0-2.5.38,13.35,13.35,0,0,0-2,.55,4,4,0,0,0-1.29.69,4,4,0,0,1,1.29-.69,13.35,13.35,0,0,1,2-.55,24.86,24.86,0,0,1,2.5-.38A26.82,26.82,0,0,1,79.38,17.27Z"/><line class="cls-1" x1="75.81" y1="17.51" x2="75.81" y2="17.51"/><line class="cls-1" x1="72.76" y1="18.14" x2="72.76" y2="18.14"/></g><path class="cls-1" d="M79.37,17.27h0a26.82,26.82,0,0,0-2.7.14,24.86,24.86,0,0,0-2.5.38,14.08,14.08,0,0,0-2,.55,4,4,0,0,0-1.29.69,4,4,0,0,1,1.29-.69,14.08,14.08,0,0,1,2-.55,24.86,24.86,0,0,1,2.5-.38A26.82,26.82,0,0,1,79.37,17.27Z"/></g></g><g class="cls-3"><polygon class="cls-1" points="70.86 19.03 70.86 19.03 70.86 19.03 70.86 19.03 70.86 19.03 70.86 19.03 70.86 19.03 70.86 19.03 70.86 19.03"/><g class="cls-16"><g class="cls-3"><path class="cls-1" d="M70.86,19a.8.8,0,0,0-.2.22.48.48,0,0,0-.09.21.38.38,0,0,0,0,.21.44.44,0,0,0,.12.19.44.44,0,0,1-.12-.19.38.38,0,0,1,0-.21.48.48,0,0,1,.09-.21A.8.8,0,0,1,70.86,19Z"/></g><polygon class="cls-1" points="70.86 19.03 70.86 19.03 70.86 19.03 70.86 19.03 70.86 19.03 70.86 19.03 70.86 19.03 70.86 19.03 70.86 19.03"/></g></g><g class="cls-3"><path class="cls-1" d="M70.86,19a.8.8,0,0,0-.2.22.48.48,0,0,0-.09.21.38.38,0,0,0,0,.21.44.44,0,0,0,.12.19.44.44,0,0,1-.12-.19.38.38,0,0,1,0-.21.48.48,0,0,1,.09-.21A.8.8,0,0,1,70.86,19Z"/><g class="cls-17"><g class="cls-3"><path class="cls-1" d="M70.86,19a.8.8,0,0,0-.2.22.48.48,0,0,0-.09.21.38.38,0,0,0,0,.21.44.44,0,0,0,.12.19.44.44,0,0,1-.12-.19.38.38,0,0,1,0-.21.48.48,0,0,1,.09-.21A.8.8,0,0,1,70.86,19Z"/></g><path class="cls-1" d="M70.86,19a.8.8,0,0,0-.2.22.48.48,0,0,0-.09.21.38.38,0,0,0,0,.21.44.44,0,0,0,.12.19.44.44,0,0,1-.12-.19.38.38,0,0,1,0-.21.48.48,0,0,1,.09-.21A.8.8,0,0,1,70.86,19Z"/></g></g><g class="cls-3"><path class="cls-1" d="M70.7,19.86,39.28,30.14Z"/><g class="cls-18"><path class="cls-1" d="M70.7,19.86,39.28,30.14Z"/></g></g><g class="cls-3"><polygon class="cls-1" points="39.28 30.14 39.28 30.14 39.28 30.14 39.28 30.14 39.28 30.14 39.28 30.14 39.28 30.14 39.28 30.14 39.28 30.14"/><g class="cls-19"><g class="cls-3"><path class="cls-1" d="M39.28,30.14l-.15,0-.15,0-.15,0-.16,0,.16,0,.15,0,.15,0Z"/></g><polygon class="cls-1" points="39.28 30.14 39.28 30.14 39.28 30.14 39.28 30.14 39.28 30.14 39.28 30.14 39.28 30.14 39.28 30.14 39.28 30.14"/></g></g><g class="cls-3"><path class="cls-1" d="M39.28,30.14l-.15,0-.15,0-.15,0-.16,0,.16,0,.15,0,.15,0Z"/><g class="cls-20"><g class="cls-3"><path class="cls-1" d="M39.28,30.14l-.15,0-.15,0-.15,0-.16,0,.16,0,.15,0,.15,0Z"/><line class="cls-1" x1="39.08" y1="30.11" x2="39.08" y2="30.11"/></g><path class="cls-1" d="M39.28,30.14l-.15,0-.15,0-.15,0-.16,0,.16,0,.15,0,.15,0Z"/></g></g><g class="cls-3"><path class="cls-1" d="M38.67,30.06l10.67-9.35Z"/><g class="cls-21"><path class="cls-1" d="M38.67,30.06l10.67-9.35Z"/></g></g><g class="cls-3"><polygon class="cls-1" points="49.35 20.71 49.35 20.71 49.35 20.71 49.34 20.71 49.34 20.71 49.34 20.71 49.35 20.71 49.35 20.71 49.35 20.71"/><g class="cls-22"><g class="cls-3"><path class="cls-1" d="M49.34,20.71c.72-.06,1.42-.14,2.08-.25s1.29-.24,1.85-.38a12.52,12.52,0,0,0,1.49-.48,3.79,3.79,0,0,0,1-.56,3.79,3.79,0,0,1-1,.56,12.52,12.52,0,0,1-1.49.48c-.56.14-1.19.27-1.85.38S50.06,20.65,49.34,20.71Z"/></g><polygon class="cls-1" points="49.35 20.71 49.35 20.71 49.35 20.71 49.34 20.71 49.34 20.71 49.34 20.71 49.35 20.71 49.35 20.71 49.35 20.71"/></g></g><g class="cls-3"><path class="cls-1" d="M49.35,20.71c.71-.06,1.41-.15,2.08-.25s1.28-.24,1.85-.38a11.15,11.15,0,0,0,1.48-.49,3.52,3.52,0,0,0,1-.55,3.52,3.52,0,0,1-1,.55,11.15,11.15,0,0,1-1.48.49c-.57.14-1.19.27-1.85.38S50.06,20.65,49.35,20.71Z"/><g class="cls-23"><g class="cls-3"><path class="cls-1" d="M49.34,20.71c.72-.06,1.42-.14,2.08-.25s1.29-.24,1.85-.38a12.52,12.52,0,0,0,1.49-.48,3.79,3.79,0,0,0,1-.56,3.79,3.79,0,0,1-1,.56,12.52,12.52,0,0,1-1.49.48c-.56.14-1.19.27-1.85.38S50.06,20.65,49.34,20.71Z"/></g><path class="cls-1" d="M49.35,20.71c.71-.06,1.41-.15,2.08-.25s1.28-.24,1.85-.38a11.15,11.15,0,0,0,1.48-.49,3.52,3.52,0,0,0,1-.55,3.52,3.52,0,0,1-1,.55,11.15,11.15,0,0,1-1.48.49c-.57.14-1.19.27-1.85.38S50.06,20.65,49.35,20.71Z"/></g></g><g class="cls-3"><polygon class="cls-1" points="55.74 19.04 55.74 19.04 55.74 19.04 55.74 19.04 55.74 19.04 55.74 19.04 55.74 19.04 55.74 19.04 55.74 19.04"/><g class="cls-24"><g class="cls-3"><path class="cls-1" d="M55.74,19c.28-.24.37-.47.28-.68s-.33-.39-.74-.55a7.11,7.11,0,0,0-1.62-.37,18.09,18.09,0,0,0-2.36-.13,18.09,18.09,0,0,1,2.36.13,7.11,7.11,0,0,1,1.62.37c.41.16.66.34.74.55S56,18.8,55.74,19Z"/></g><polygon class="cls-1" points="55.74 19.04 55.74 19.04 55.74 19.04 55.74 19.04 55.74 19.04 55.74 19.04 55.74 19.04 55.74 19.04 55.74 19.04"/></g></g><g class="cls-3"><path class="cls-1" d="M55.74,19c.28-.24.37-.47.28-.68s-.34-.39-.74-.55a7.11,7.11,0,0,0-1.62-.37,18.09,18.09,0,0,0-2.36-.13,18.09,18.09,0,0,1,2.36.13,7.11,7.11,0,0,1,1.62.37c.4.16.66.34.74.55S56,18.8,55.74,19Z"/><g class="cls-25"><g class="cls-3"><path class="cls-1" d="M55.74,19c.28-.24.37-.47.28-.68s-.33-.39-.74-.55a7.11,7.11,0,0,0-1.62-.37,18.09,18.09,0,0,0-2.36-.13,18.09,18.09,0,0,1,2.36.13,7.11,7.11,0,0,1,1.62.37c.41.16.66.34.74.55S56,18.8,55.74,19Z"/></g><path class="cls-1" d="M55.74,19c.28-.24.37-.47.28-.68s-.34-.39-.74-.55a7.11,7.11,0,0,0-1.62-.37,18.09,18.09,0,0,0-2.36-.13,18.09,18.09,0,0,1,2.36.13,7.11,7.11,0,0,1,1.62.37c.4.16.66.34.74.55S56,18.8,55.74,19Z"/></g></g><g class="cls-3"><polygon class="cls-1" points="51.29 17.31 51.29 17.31 51.3 17.31 51.3 17.31 51.3 17.31 51.3 17.31 51.3 17.31 51.3 17.31 51.3 17.31 51.29 17.31"/><g class="cls-26"><g class="cls-3"><path class="cls-1" d="M51.3,17.31a26.57,26.57,0,0,0-2.68.14,25.16,25.16,0,0,0-2.49.37,14.87,14.87,0,0,0-2.05.56,4.57,4.57,0,0,0-1.32.68,4.57,4.57,0,0,1,1.32-.68,14.87,14.87,0,0,1,2.05-.56,25.16,25.16,0,0,1,2.49-.37A26.57,26.57,0,0,1,51.3,17.31Z"/></g><polygon class="cls-1" points="51.29 17.31 51.29 17.31 51.3 17.31 51.3 17.31 51.3 17.31 51.3 17.31 51.3 17.31 51.3 17.31 51.3 17.31 51.29 17.31"/></g></g><g class="cls-3"><path class="cls-1" d="M51.29,17.31h0a26.22,26.22,0,0,0-2.67.14c-.88.09-1.73.22-2.5.37a14.71,14.71,0,0,0-2,.56,4.57,4.57,0,0,0-1.32.68,4.57,4.57,0,0,1,1.32-.68,14.71,14.71,0,0,1,2-.56c.77-.15,1.62-.28,2.5-.37A26.22,26.22,0,0,1,51.29,17.31Z"/><g class="cls-27"><g class="cls-3"><path class="cls-1" d="M51.3,17.31a26.57,26.57,0,0,0-2.68.14,25.16,25.16,0,0,0-2.49.37,14.87,14.87,0,0,0-2.05.56,4.57,4.57,0,0,0-1.32.68,4.57,4.57,0,0,1,1.32-.68,14.87,14.87,0,0,1,2.05-.56,25.16,25.16,0,0,1,2.49-.37A26.57,26.57,0,0,1,51.3,17.31Z"/><line class="cls-1" x1="47.76" y1="17.55" x2="47.76" y2="17.55"/><line class="cls-1" x1="44.69" y1="18.18" x2="44.69" y2="18.18"/></g><path class="cls-1" d="M51.29,17.31h0a26.22,26.22,0,0,0-2.67.14c-.88.09-1.73.22-2.5.37a14.71,14.71,0,0,0-2,.56,4.57,4.57,0,0,0-1.32.68,4.57,4.57,0,0,1,1.32-.68,14.71,14.71,0,0,1,2-.56c.77-.15,1.62-.28,2.5-.37A26.22,26.22,0,0,1,51.29,17.31Z"/></g></g><g class="cls-3"><polygon class="cls-1" points="42.75 19.06 42.75 19.06 42.76 19.06 42.76 19.06 42.76 19.06 42.76 19.06 42.76 19.06 42.76 19.06 42.76 19.06 42.75 19.06"/><g class="cls-28"><g class="cls-3"><path class="cls-1" d="M42.76,19.06a.71.71,0,0,0-.33.55.63.63,0,0,0,.34.48,3.24,3.24,0,0,0,.95.37,8.72,8.72,0,0,0,1.48.25,8.72,8.72,0,0,1-1.48-.25,3.24,3.24,0,0,1-.95-.37.63.63,0,0,1-.34-.48A.71.71,0,0,1,42.76,19.06Z"/></g><polygon class="cls-1" points="42.75 19.06 42.75 19.06 42.76 19.06 42.76 19.06 42.76 19.06 42.76 19.06 42.76 19.06 42.76 19.06 42.76 19.06 42.75 19.06"/></g></g><g class="cls-3"><path class="cls-1" d="M42.75,19.06h0a.7.7,0,0,0-.32.55.63.63,0,0,0,.34.48,3.24,3.24,0,0,0,.95.37,8.72,8.72,0,0,0,1.48.25,8.72,8.72,0,0,1-1.48-.25,3.24,3.24,0,0,1-.95-.37.63.63,0,0,1-.34-.48A.7.7,0,0,1,42.75,19.06Z"/><g class="cls-29"><g class="cls-3"><path class="cls-1" d="M42.76,19.06a.71.71,0,0,0-.33.55.63.63,0,0,0,.34.48,3.24,3.24,0,0,0,.95.37,8.72,8.72,0,0,0,1.48.25,8.72,8.72,0,0,1-1.48-.25,3.24,3.24,0,0,1-.95-.37.63.63,0,0,1-.34-.48A.71.71,0,0,1,42.76,19.06Z"/></g><path class="cls-1" d="M42.75,19.06h0a.7.7,0,0,0-.32.55.63.63,0,0,0,.34.48,3.24,3.24,0,0,0,.95.37,8.72,8.72,0,0,0,1.48.25,8.72,8.72,0,0,1-1.48-.25,3.24,3.24,0,0,1-.95-.37.63.63,0,0,1-.34-.48A.7.7,0,0,1,42.75,19.06Z"/></g></g><g class="cls-3"><path class="cls-1" d="M45.2,20.71,34.46,30.06Z"/><g class="cls-30"><path class="cls-1" d="M45.2,20.71,34.46,30.06Z"/></g></g><g class="cls-3"><polygon class="cls-1" points="34.46 30.06 34.46 30.06 34.46 30.06 34.46 30.06 34.47 30.06 34.46 30.06 34.46 30.06 34.46 30.06 34.46 30.06"/><g class="cls-31"><g class="cls-3"><path class="cls-1" d="M34.46,30.06c-.72.06-1.43.15-2.11.26s-1.31.24-1.89.39a12.15,12.15,0,0,0-1.54.5,4.11,4.11,0,0,0-1,.57,4.11,4.11,0,0,1,1-.57,12.15,12.15,0,0,1,1.54-.5q.87-.23,1.89-.39C33,30.21,33.74,30.12,34.46,30.06Z"/></g><polygon class="cls-1" points="34.46 30.06 34.46 30.06 34.46 30.06 34.46 30.06 34.47 30.06 34.46 30.06 34.46 30.06 34.46 30.06 34.46 30.06"/></g></g><g class="cls-3"><path class="cls-1" d="M34.46,30.06c-.73.06-1.44.15-2.12.26s-1.31.24-1.89.39a12,12,0,0,0-1.53.5,4.11,4.11,0,0,0-1,.57,4.11,4.11,0,0,1,1-.57,12,12,0,0,1,1.53-.5c.58-.15,1.22-.28,1.89-.39S33.73,30.12,34.46,30.06Z"/><g class="cls-32"><g class="cls-3"><path class="cls-1" d="M34.46,30.06c-.72.06-1.43.15-2.11.26s-1.31.24-1.89.39a12.15,12.15,0,0,0-1.54.5,4.11,4.11,0,0,0-1,.57,4.11,4.11,0,0,1,1-.57,12.15,12.15,0,0,1,1.54-.5q.87-.23,1.89-.39C33,30.21,33.74,30.12,34.46,30.06Z"/></g><path class="cls-1" d="M34.46,30.06c-.73.06-1.44.15-2.12.26s-1.31.24-1.89.39a12,12,0,0,0-1.53.5,4.11,4.11,0,0,0-1,.57,4.11,4.11,0,0,1,1-.57,12,12,0,0,1,1.53-.5c.58-.15,1.22-.28,1.89-.39S33.73,30.12,34.46,30.06Z"/></g></g><g class="cls-3"><polygon class="cls-1" points="27.89 31.79 27.89 31.79 27.89 31.79 27.89 31.79 27.89 31.78 27.89 31.79 27.89 31.79 27.89 31.79 27.89 31.79"/><g class="cls-33"><g class="cls-3"><path class="cls-1" d="M27.9,31.78c-.31.26-.41.5-.34.72a1.14,1.14,0,0,0,.72.58,6.54,6.54,0,0,0,1.64.4,17.12,17.12,0,0,0,2.42.15,17.12,17.12,0,0,1-2.42-.15,6.54,6.54,0,0,1-1.64-.4,1.14,1.14,0,0,1-.72-.58C27.49,32.28,27.59,32,27.9,31.78Z"/></g><polygon class="cls-1" points="27.89 31.79 27.89 31.79 27.89 31.79 27.89 31.79 27.89 31.78 27.89 31.79 27.89 31.79 27.89 31.79 27.89 31.79"/></g></g><g class="cls-3"><path class="cls-1" d="M27.89,31.79c-.3.25-.4.49-.33.71s.32.42.72.59a7.19,7.19,0,0,0,1.64.39,17.12,17.12,0,0,0,2.42.15,17.12,17.12,0,0,1-2.42-.15,7.19,7.19,0,0,1-1.64-.39c-.4-.17-.65-.37-.72-.59S27.59,32,27.89,31.79Z"/><g class="cls-34"><g class="cls-3"><path class="cls-1" d="M27.9,31.78c-.31.26-.41.5-.34.72a1.14,1.14,0,0,0,.72.58,6.54,6.54,0,0,0,1.64.4,17.12,17.12,0,0,0,2.42.15,17.12,17.12,0,0,1-2.42-.15,6.54,6.54,0,0,1-1.64-.4,1.14,1.14,0,0,1-.72-.58C27.49,32.28,27.59,32,27.9,31.78Z"/><line class="cls-1" x1="29.28" y1="33.37" x2="29.28" y2="33.37"/></g><path class="cls-1" d="M27.89,31.79c-.3.25-.4.49-.33.71s.32.42.72.59a7.19,7.19,0,0,0,1.64.39,17.12,17.12,0,0,0,2.42.15,17.12,17.12,0,0,1-2.42-.15,7.19,7.19,0,0,1-1.64-.39c-.4-.17-.65-.37-.72-.59S27.59,32,27.89,31.79Z"/></g></g><g class="cls-3"><polygon class="cls-1" points="32.35 33.63 32.35 33.63 32.35 33.63 32.34 33.63 32.34 33.63 32.34 33.63 32.34 33.63 32.34 33.63 32.35 33.63 32.35 33.63"/><g class="cls-35"><g class="cls-3"><path class="cls-1" d="M32.34,33.63c.92,0,1.85-.05,2.76-.14s1.78-.23,2.58-.39a15.24,15.24,0,0,0,2.11-.59,4.57,4.57,0,0,0,1.36-.71,4.57,4.57,0,0,1-1.36.71,15.24,15.24,0,0,1-2.11.59c-.8.16-1.67.3-2.58.39S33.26,33.63,32.34,33.63Z"/></g><polygon class="cls-1" points="32.35 33.63 32.35 33.63 32.35 33.63 32.34 33.63 32.34 33.63 32.34 33.63 32.34 33.63 32.34 33.63 32.35 33.63 32.35 33.63"/></g></g><g class="cls-3"><path class="cls-1" d="M32.35,33.63h0c.92,0,1.85-.05,2.76-.14s1.78-.23,2.57-.39a15.82,15.82,0,0,0,2.12-.59,4.63,4.63,0,0,0,1.35-.71,4.63,4.63,0,0,1-1.35.71,15.82,15.82,0,0,1-2.12.59c-.79.16-1.67.3-2.57.39S33.27,33.63,32.35,33.63Z"/><g class="cls-36"><g class="cls-3"><path class="cls-1" d="M32.34,33.63c.92,0,1.85-.05,2.76-.14s1.78-.23,2.58-.39a15.24,15.24,0,0,0,2.11-.59,4.57,4.57,0,0,0,1.36-.71,4.57,4.57,0,0,1-1.36.71,15.24,15.24,0,0,1-2.11.59c-.8.16-1.67.3-2.58.39S33.26,33.63,32.34,33.63Z"/><line class="cls-1" x1="35.99" y1="33.38" x2="35.99" y2="33.38"/><line class="cls-1" x1="39.16" y1="32.73" x2="39.16" y2="32.73"/></g><path class="cls-1" d="M32.35,33.63h0c.92,0,1.85-.05,2.76-.14s1.78-.23,2.57-.39a15.82,15.82,0,0,0,2.12-.59,4.63,4.63,0,0,0,1.35-.71,4.63,4.63,0,0,1-1.35.71,15.82,15.82,0,0,1-2.12.59c-.79.16-1.67.3-2.57.39S33.27,33.63,32.35,33.63Z"/></g></g><g class="cls-3"><polygon class="cls-1" points="41.15 31.8 41.15 31.8 41.15 31.8 41.15 31.8 41.15 31.8 41.15 31.8 41.15 31.8 41.15 31.8 41.15 31.8"/><g class="cls-37"><g class="cls-3"><path class="cls-1" d="M41.15,31.8a1.39,1.39,0,0,0,.21-.22.65.65,0,0,0,.11-.22.46.46,0,0,0,0-.2.56.56,0,0,0-.08-.2.56.56,0,0,1,.08.2.46.46,0,0,1,0,.2.65.65,0,0,1-.11.22A1.39,1.39,0,0,1,41.15,31.8Z"/></g><polygon class="cls-1" points="41.15 31.8 41.15 31.8 41.15 31.8 41.15 31.8 41.15 31.8 41.15 31.8 41.15 31.8 41.15 31.8 41.15 31.8"/></g></g><g class="cls-3"><path class="cls-1" d="M41.15,31.8a2.27,2.27,0,0,0,.22-.22.84.84,0,0,0,.1-.22.46.46,0,0,0,0-.2.56.56,0,0,0-.08-.2.56.56,0,0,1,.08.2.46.46,0,0,1,0,.2.84.84,0,0,1-.1.22A2.27,2.27,0,0,1,41.15,31.8Z"/><g class="cls-38"><g class="cls-3"><path class="cls-1" d="M41.15,31.8a1.39,1.39,0,0,0,.21-.22.65.65,0,0,0,.11-.22.46.46,0,0,0,0-.2.56.56,0,0,0-.08-.2.56.56,0,0,1,.08.2.46.46,0,0,1,0,.2.65.65,0,0,1-.11.22A1.39,1.39,0,0,1,41.15,31.8Z"/></g><path class="cls-1" d="M41.15,31.8a2.27,2.27,0,0,0,.22-.22.84.84,0,0,0,.1-.22.46.46,0,0,0,0-.2.56.56,0,0,0-.08-.2.56.56,0,0,1,.08.2.46.46,0,0,1,0,.2.84.84,0,0,1-.1.22A2.27,2.27,0,0,1,41.15,31.8Z"/></g></g><g class="cls-3"><path class="cls-1" d="M41.4,31,72.94,20.63Z"/><g class="cls-39"><path class="cls-1" d="M41.4,31,72.94,20.63Z"/></g></g><g class="cls-3"><polygon class="cls-1" points="72.94 20.63 72.94 20.63 72.94 20.63 72.94 20.63 72.94 20.63 72.94 20.63 72.94 20.63 72.94 20.63 72.94 20.63"/><g class="cls-40"><g class="cls-3"><path class="cls-1" d="M72.94,20.63l.12,0h.12l.13,0h0l-.13,0h-.12Z"/></g><polygon class="cls-1" points="72.94 20.63 72.94 20.63 72.94 20.63 72.94 20.63 72.94 20.63 72.94 20.63 72.94 20.63 72.94 20.63 72.94 20.63"/></g></g><g class="cls-3"><path class="cls-1" d="M72.94,20.63l.12,0h.13l.12,0h0l-.12,0h-.13Z"/><g class="cls-41"><g class="cls-3"><path class="cls-1" d="M72.94,20.63l.12,0h.12l.13,0h0l-.13,0h-.12Z"/></g><path class="cls-1" d="M72.94,20.63l.12,0h.13l.12,0h0l-.12,0h-.13Z"/></g></g><g class="cls-3"><path class="cls-1" d="M73.44,20.69,63.12,30.08Z"/><g class="cls-42"><path class="cls-1" d="M73.44,20.69,63.12,30.08Z"/></g></g><g class="cls-3"><polygon class="cls-1" points="63.11 30.08 63.12 30.08 63.12 30.08 63.12 30.08 63.12 30.08 63.12 30.08 63.12 30.08 63.12 30.08 63.11 30.08"/><g class="cls-43"><g class="cls-3"><path class="cls-1" d="M63.12,30.08c-.73.06-1.44.15-2.12.26s-1.31.24-1.89.39a11.05,11.05,0,0,0-1.51.51,3.51,3.51,0,0,0-1,.58,3.51,3.51,0,0,1,1-.58,11.05,11.05,0,0,1,1.51-.51Q60,30.5,61,30.34C61.68,30.23,62.39,30.14,63.12,30.08Z"/></g><polygon class="cls-1" points="63.11 30.08 63.12 30.08 63.12 30.08 63.12 30.08 63.12 30.08 63.12 30.08 63.12 30.08 63.12 30.08 63.11 30.08"/></g></g><g class="cls-3"><path class="cls-1" d="M63.11,30.08c-.73.06-1.44.15-2.12.26s-1.31.24-1.88.39a11.22,11.22,0,0,0-1.52.51,3.59,3.59,0,0,0-1,.58,3.59,3.59,0,0,1,1-.58,11.22,11.22,0,0,1,1.52-.51c.57-.15,1.21-.28,1.88-.39S62.38,30.14,63.11,30.08Z"/><g class="cls-44"><g class="cls-3"><path class="cls-1" d="M63.12,30.08c-.73.06-1.44.15-2.12.26s-1.31.24-1.89.39a11.05,11.05,0,0,0-1.51.51,3.51,3.51,0,0,0-1,.58,3.51,3.51,0,0,1,1-.58,11.05,11.05,0,0,1,1.51-.51Q60,30.5,61,30.34C61.68,30.23,62.39,30.14,63.12,30.08Z"/></g><path class="cls-1" d="M63.11,30.08c-.73.06-1.44.15-2.12.26s-1.31.24-1.88.39a11.22,11.22,0,0,0-1.52.51,3.59,3.59,0,0,0-1,.58,3.59,3.59,0,0,1,1-.58,11.22,11.22,0,0,1,1.52-.51c.57-.15,1.21-.28,1.88-.39S62.38,30.14,63.11,30.08Z"/></g></g><g class="cls-3"><polygon class="cls-1" points="56.59 31.82 56.59 31.82 56.59 31.82 56.59 31.82 56.6 31.82 56.59 31.82 56.59 31.82 56.59 31.82 56.59 31.82"/><g class="cls-45"><g class="cls-3"><path class="cls-1" d="M56.6,31.82c-.29.25-.38.49-.29.71a1.24,1.24,0,0,0,.77.59,7,7,0,0,0,1.68.4,17.73,17.73,0,0,0,2.46.15,17.73,17.73,0,0,1-2.46-.15,7,7,0,0,1-1.68-.4,1.24,1.24,0,0,1-.77-.59C56.22,32.31,56.31,32.07,56.6,31.82Z"/></g><polygon class="cls-1" points="56.59 31.82 56.59 31.82 56.59 31.82 56.59 31.82 56.6 31.82 56.59 31.82 56.59 31.82 56.59 31.82 56.59 31.82"/></g></g><g class="cls-3"><path class="cls-1" d="M56.59,31.82c-.28.25-.37.5-.28.72a1.27,1.27,0,0,0,.77.58,7,7,0,0,0,1.69.4,17.48,17.48,0,0,0,2.45.15,17.48,17.48,0,0,1-2.45-.15,7,7,0,0,1-1.69-.4,1.27,1.27,0,0,1-.77-.58C56.22,32.32,56.31,32.07,56.59,31.82Z"/><g class="cls-46"><g class="cls-3"><path class="cls-1" d="M56.6,31.82c-.29.25-.38.49-.29.71a1.24,1.24,0,0,0,.77.59,7,7,0,0,0,1.68.4,17.73,17.73,0,0,0,2.46.15,17.73,17.73,0,0,1-2.46-.15,7,7,0,0,1-1.68-.4,1.24,1.24,0,0,1-.77-.59C56.22,32.31,56.31,32.07,56.6,31.82Z"/></g><path class="cls-1" d="M56.59,31.82c-.28.25-.37.5-.28.72a1.27,1.27,0,0,0,.77.58,7,7,0,0,0,1.69.4,17.48,17.48,0,0,0,2.45.15,17.48,17.48,0,0,1-2.45-.15,7,7,0,0,1-1.69-.4,1.27,1.27,0,0,1-.77-.58C56.22,32.32,56.31,32.07,56.59,31.82Z"/></g></g></g><path class="cls-1" d="M72.34,41.92,83.63,32c.71-.06,1.42-.15,2.08-.26a17.2,17.2,0,0,0,1.85-.38,9.69,9.69,0,0,0,1.49-.48,3.79,3.79,0,0,0,1-.55c.28-.24.37-.47.28-.68a1.19,1.19,0,0,0-.74-.55A6.61,6.61,0,0,0,88,28.69a18,18,0,0,0-2.36-.14c-.89,0-1.8.05-2.68.14s-1.72.22-2.5.38a14.79,14.79,0,0,0-2,.55,4.44,4.44,0,0,0-1.32.68.74.74,0,0,0-.34.55.64.64,0,0,0,.35.48,3.22,3.22,0,0,0,1,.38,9.63,9.63,0,0,0,1.48.25l-8.74,7.35H29.25L20.51,32A9.63,9.63,0,0,0,22,31.71a3.22,3.22,0,0,0,1-.38.64.64,0,0,0,.35-.48A.74.74,0,0,0,23,30.3a4.44,4.44,0,0,0-1.32-.68,14.79,14.79,0,0,0-2-.55c-.78-.16-1.63-.29-2.5-.38s-1.79-.13-2.68-.14a18,18,0,0,0-2.36.14,6.61,6.61,0,0,0-1.62.37,1.19,1.19,0,0,0-.74.55c-.09.21,0,.44.28.68a3.79,3.79,0,0,0,1,.55,9.69,9.69,0,0,0,1.49.48,17.2,17.2,0,0,0,1.85.38c.66.11,1.37.2,2.08.26L27.74,42Z"/></svg>