<svg id="レイヤー_1" data-name="レイヤー 1" xmlns="http://www.w3.org/2000/svg" viewBox="0 0 100 50"><defs><style>.cls-1{fill:#5c6b6e;}</style></defs><path class="cls-1" d="M88,2A10,10,0,0,1,98,12V38A10,10,0,0,1,88,48H12A10,10,0,0,1,2,38V12A10,10,0,0,1,12,2H88m0-2H12A12,12,0,0,0,0,12V38A12,12,0,0,0,12,50H88a12,12,0,0,0,12-12V12A12,12,0,0,0,88,0Z"/><path class="cls-1" d="M72.34,41.92,83.63,32c.71-.06,1.42-.15,2.08-.26a17.2,17.2,0,0,0,1.85-.38,9.69,9.69,0,0,0,1.49-.48,3.79,3.79,0,0,0,1-.55c.28-.24.37-.47.28-.68a1.19,1.19,0,0,0-.74-.55A6.61,6.61,0,0,0,88,28.69a18,18,0,0,0-2.36-.14c-.89,0-1.8.05-2.68.14s-1.72.22-2.5.38a14.79,14.79,0,0,0-2,.55,4.44,4.44,0,0,0-1.32.68.74.74,0,0,0-.34.55.64.64,0,0,0,.35.48,3.22,3.22,0,0,0,1,.38,9.63,9.63,0,0,0,1.48.25l-8.74,7.35H29.25L20.51,32A9.63,9.63,0,0,0,22,31.71a3.22,3.22,0,0,0,1-.38.64.64,0,0,0,.35-.48A.74.74,0,0,0,23,30.3a4.44,4.44,0,0,0-1.32-.68,14.79,14.79,0,0,0-2-.55c-.78-.16-1.63-.29-2.5-.38s-1.79-.13-2.68-.14a18,18,0,0,0-2.36.14,6.61,6.61,0,0,0-1.62.37,1.19,1.19,0,0,0-.74.55c-.09.21,0,.44.28.68a3.79,3.79,0,0,0,1,.55,9.69,9.69,0,0,0,1.49.48,17.2,17.2,0,0,0,1.85.38c.66.11,1.37.2,2.08.26L27.74,42Z"/></svg>