<svg id="レイヤー_1" data-name="レイヤー 1" xmlns="http://www.w3.org/2000/svg" xmlns:xlink="http://www.w3.org/1999/xlink" viewBox="0 0 100 50"><defs><style>.cls-1{fill:#5c6b6e;}.cls-2{isolation:isolate;}.cls-3{clip-path:url(#clip-path);}.cls-4{clip-path:url(#clip-path-3);}.cls-5{clip-path:url(#clip-path-4);}.cls-6{clip-path:url(#clip-path-5);}.cls-7{clip-path:url(#clip-path-6);}.cls-8{clip-path:url(#clip-path-7);}.cls-9{clip-path:url(#clip-path-8);}.cls-10{clip-path:url(#clip-path-9);}.cls-11{clip-path:url(#clip-path-10);}.cls-12{clip-path:url(#clip-path-11);}.cls-13{clip-path:url(#clip-path-12);}.cls-14{clip-path:url(#clip-path-13);}.cls-15{clip-path:url(#clip-path-14);}.cls-16{clip-path:url(#clip-path-15);}.cls-17{clip-path:url(#clip-path-16);}.cls-18{clip-path:url(#clip-path-17);}.cls-19{clip-path:url(#clip-path-18);}.cls-20{clip-path:url(#clip-path-19);}.cls-21{clip-path:url(#clip-path-20);}.cls-22{clip-path:url(#clip-path-21);}.cls-23{clip-path:url(#clip-path-22);}.cls-24{clip-path:url(#clip-path-23);}.cls-25{clip-path:url(#clip-path-24);}.cls-26{clip-path:url(#clip-path-25);}.cls-27{clip-path:url(#clip-path-26);}.cls-28{clip-path:url(#clip-path-27);}.cls-29{clip-path:url(#clip-path-28);}.cls-30{clip-path:url(#clip-path-29);}.cls-31{clip-path:url(#clip-path-30);}.cls-32{clip-path:url(#clip-path-31);}.cls-33{clip-path:url(#clip-path-32);}.cls-34{clip-path:url(#clip-path-33);}.cls-35{clip-path:url(#clip-path-34);}.cls-36{clip-path:url(#clip-path-35);}.cls-37{clip-path:url(#clip-path-36);}.cls-38{clip-path:url(#clip-path-37);}.cls-39{clip-path:url(#clip-path-38);}.cls-40{clip-path:url(#clip-path-39);}.cls-41{clip-path:url(#clip-path-40);}.cls-42{clip-path:url(#clip-path-41);}.cls-43{clip-path:url(#clip-path-42);}.cls-44{clip-path:url(#clip-path-43);}.cls-45{clip-path:url(#clip-path-44);}</style><clipPath id="clip-path"><path class="cls-1" d="M61.22,21.21a17.73,17.73,0,0,1-2.46-.15,7,7,0,0,1-1.68-.4,1.31,1.31,0,0,1-.77-.59c-.09-.22,0-.46.29-.72a4.06,4.06,0,0,1,1-.58,11.12,11.12,0,0,1,1.51-.5Q60,18,61,17.88c.68-.11,1.39-.2,2.12-.26L73.44,8.23h-.13l-.13,0h-.12l-.12,0L41.4,18.5a.56.56,0,0,1,.08.2.46.46,0,0,1,0,.2.53.53,0,0,1-.11.21,1.1,1.1,0,0,1-.21.23,4.57,4.57,0,0,1-1.36.71,15.24,15.24,0,0,1-2.11.59c-.8.16-1.67.3-2.58.39s-1.84.14-2.76.14A17.12,17.12,0,0,1,29.92,21a6.54,6.54,0,0,1-1.64-.4,1.14,1.14,0,0,1-.72-.58c-.07-.22,0-.46.34-.72a4.11,4.11,0,0,1,1-.57,12.15,12.15,0,0,1,1.54-.5c.58-.15,1.21-.29,1.89-.4s1.39-.19,2.11-.25L45.2,8.25A9.85,9.85,0,0,1,43.72,8a3,3,0,0,1-.95-.38.6.6,0,0,1-.34-.47.74.74,0,0,1,.33-.56,4.34,4.34,0,0,1,1.32-.67,14.87,14.87,0,0,1,2.05-.56A22.51,22.51,0,0,1,48.62,5a26.57,26.57,0,0,1,2.68-.14A16.49,16.49,0,0,1,53.66,5a7.11,7.11,0,0,1,1.62.37c.41.16.66.34.74.55s0,.44-.28.68a3.79,3.79,0,0,1-1,.55,10.85,10.85,0,0,1-1.49.49c-.56.14-1.19.27-1.85.38s-1.36.19-2.08.25L38.67,17.6l.16,0,.15,0,.15,0,.15,0L70.7,7.4a.5.5,0,0,1-.12-.19.38.38,0,0,1,0-.21.48.48,0,0,1,.09-.21.82.82,0,0,1,.2-.23,4.22,4.22,0,0,1,1.29-.68,14.54,14.54,0,0,1,2-.56A24.94,24.94,0,0,1,76.68,5a26.82,26.82,0,0,1,2.7-.14,17,17,0,0,1,2.39.13,7.63,7.63,0,0,1,1.67.37,1.38,1.38,0,0,1,.79.56c.1.21,0,.44-.24.68a3.83,3.83,0,0,1-.95.56,12.12,12.12,0,0,1-1.47.48A17.2,17.2,0,0,1,79.72,8c-.66.11-1.37.2-2.08.26L67.37,17.62a10.59,10.59,0,0,1,1.55.26,4.05,4.05,0,0,1,1,.4A.6.6,0,0,1,70,19.37a4.34,4.34,0,0,1-1.33.72,14.9,14.9,0,0,1-2.09.59c-.8.16-1.68.3-2.59.39S62.15,21.21,61.22,21.21Z"/></clipPath><clipPath id="clip-path-3"><polygon class="cls-1" points="61.23 21.21 61.23 21.21 61.23 21.21 61.22 21.21 61.22 21.21 61.22 21.21 61.22 21.21 61.22 21.21 61.23 21.21 61.23 21.21"/></clipPath><clipPath id="clip-path-4"><path class="cls-1" d="M61.23,21.21h0c.93,0,1.87-.05,2.78-.14a23.31,23.31,0,0,0,2.58-.4,13.4,13.4,0,0,0,2.09-.58A4.34,4.34,0,0,0,70,19.37a4.34,4.34,0,0,1-1.33.72,13.4,13.4,0,0,1-2.09.58,23.31,23.31,0,0,1-2.58.4C63.1,21.16,62.16,21.21,61.23,21.21Z"/></clipPath><clipPath id="clip-path-5"><polygon class="cls-1" points="70.01 19.37 70.01 19.37 70.01 19.37 70.01 19.37 70.01 19.37 70.01 19.37 70.01 19.37 70.01 19.37 70.01 19.37"/></clipPath><clipPath id="clip-path-6"><path class="cls-1" d="M70,19.37a.71.71,0,0,0,.3-.59.72.72,0,0,0-.39-.5,3.65,3.65,0,0,0-1-.4,10.2,10.2,0,0,0-1.54-.26,10.2,10.2,0,0,1,1.54.26,3.65,3.65,0,0,1,1,.4.72.72,0,0,1,.39.5A.71.71,0,0,1,70,19.37Z"/></clipPath><clipPath id="clip-path-7"><path class="cls-1" d="M67.37,17.62,77.64,8.23Z"/></clipPath><clipPath id="clip-path-8"><polygon class="cls-1" points="77.64 8.23 77.64 8.23 77.64 8.23 77.64 8.23 77.64 8.23 77.64 8.23 77.64 8.23 77.64 8.23 77.64 8.23"/></clipPath><clipPath id="clip-path-9"><path class="cls-1" d="M77.64,8.23c.72-.06,1.42-.15,2.09-.26a17,17,0,0,0,1.84-.38A12.12,12.12,0,0,0,83,7.11,3.83,3.83,0,0,0,84,6.55a3.83,3.83,0,0,1-.95.56,12.12,12.12,0,0,1-1.47.48A17,17,0,0,1,79.73,8C79.06,8.08,78.36,8.17,77.64,8.23Z"/></clipPath><clipPath id="clip-path-10"><polygon class="cls-1" points="83.99 6.55 83.99 6.55 83.99 6.55 83.99 6.55 83.99 6.55 83.99 6.55 83.99 6.55 83.99 6.55 83.99 6.55"/></clipPath><clipPath id="clip-path-11"><path class="cls-1" d="M84,6.55c.27-.25.34-.48.24-.69a1.43,1.43,0,0,0-.79-.55,7.63,7.63,0,0,0-1.67-.37,17,17,0,0,0-2.39-.13,17,17,0,0,1,2.39.13,7.63,7.63,0,0,1,1.67.37,1.43,1.43,0,0,1,.79.55C84.33,6.07,84.26,6.3,84,6.55Z"/></clipPath><clipPath id="clip-path-12"><polygon class="cls-1" points="79.37 4.81 79.37 4.81 79.37 4.81 79.37 4.81 79.38 4.81 79.38 4.81 79.38 4.81 79.37 4.81 79.37 4.81 79.37 4.81"/></clipPath><clipPath id="clip-path-13"><path class="cls-1" d="M79.37,4.81h0a26.82,26.82,0,0,0-2.7.14c-.88.09-1.73.22-2.5.37a14,14,0,0,0-2,.56,4.22,4.22,0,0,0-1.29.68,4.22,4.22,0,0,1,1.29-.68,14,14,0,0,1,2-.56c.77-.15,1.62-.28,2.5-.37A26.82,26.82,0,0,1,79.37,4.81Z"/></clipPath><clipPath id="clip-path-14"><polygon class="cls-1" points="70.86 6.57 70.86 6.57 70.86 6.57 70.86 6.56 70.86 6.56 70.86 6.56 70.86 6.57 70.86 6.57 70.86 6.57"/></clipPath><clipPath id="clip-path-15"><path class="cls-1" d="M70.86,6.57a.8.8,0,0,0-.2.22.48.48,0,0,0-.09.21.38.38,0,0,0,0,.21.5.5,0,0,0,.12.19.5.5,0,0,1-.12-.19.38.38,0,0,1,0-.21.48.48,0,0,1,.09-.21A.8.8,0,0,1,70.86,6.57Z"/></clipPath><clipPath id="clip-path-16"><path class="cls-1" d="M70.7,7.4,39.28,17.68Z"/></clipPath><clipPath id="clip-path-17"><polygon class="cls-1" points="39.28 17.68 39.28 17.68 39.28 17.68 39.28 17.68 39.28 17.68 39.28 17.68 39.28 17.68 39.28 17.68 39.28 17.68"/></clipPath><clipPath id="clip-path-18"><path class="cls-1" d="M39.28,17.68l-.15,0-.15,0-.15,0-.16,0,.16,0,.15,0,.15,0Z"/></clipPath><clipPath id="clip-path-19"><path class="cls-1" d="M38.67,17.6,49.34,8.25Z"/></clipPath><clipPath id="clip-path-20"><polygon class="cls-1" points="49.35 8.25 49.35 8.25 49.35 8.25 49.34 8.25 49.34 8.25 49.34 8.25 49.35 8.25 49.35 8.25 49.35 8.25"/></clipPath><clipPath id="clip-path-21"><path class="cls-1" d="M49.35,8.25c.71-.06,1.41-.15,2.08-.25s1.28-.24,1.85-.39a9.91,9.91,0,0,0,1.48-.48,3.79,3.79,0,0,0,1-.55,3.79,3.79,0,0,1-1,.55,9.91,9.91,0,0,1-1.48.48c-.57.15-1.19.28-1.85.39S50.06,8.19,49.35,8.25Z"/></clipPath><clipPath id="clip-path-22"><polygon class="cls-1" points="55.74 6.58 55.74 6.58 55.74 6.58 55.74 6.58 55.74 6.58 55.74 6.58 55.74 6.58 55.74 6.58 55.74 6.58"/></clipPath><clipPath id="clip-path-23"><path class="cls-1" d="M55.74,6.58c.28-.24.37-.47.28-.68a1.19,1.19,0,0,0-.74-.55A7.11,7.11,0,0,0,53.66,5a16.49,16.49,0,0,0-2.36-.13A16.49,16.49,0,0,1,53.66,5a7.11,7.11,0,0,1,1.62.37A1.19,1.19,0,0,1,56,5.9C56.11,6.11,56,6.34,55.74,6.58Z"/></clipPath><clipPath id="clip-path-24"><polygon class="cls-1" points="51.29 4.85 51.29 4.85 51.3 4.85 51.3 4.85 51.3 4.85 51.3 4.85 51.3 4.85 51.3 4.85 51.3 4.85 51.29 4.85"/></clipPath><clipPath id="clip-path-25"><path class="cls-1" d="M51.29,4.85h0A26.22,26.22,0,0,0,48.62,5a24.94,24.94,0,0,0-2.5.37,14.71,14.71,0,0,0-2,.56,4.34,4.34,0,0,0-1.32.67,4.34,4.34,0,0,1,1.32-.67,14.71,14.71,0,0,1,2-.56A24.94,24.94,0,0,1,48.62,5,26.22,26.22,0,0,1,51.29,4.85Z"/></clipPath><clipPath id="clip-path-26"><polygon class="cls-1" points="42.75 6.6 42.75 6.6 42.76 6.6 42.76 6.59 42.76 6.59 42.76 6.59 42.76 6.59 42.76 6.59 42.76 6.6 42.75 6.6"/></clipPath><clipPath id="clip-path-27"><path class="cls-1" d="M42.75,6.6h0a.69.69,0,0,0-.32.55.63.63,0,0,0,.34.48,3.24,3.24,0,0,0,.95.37,9.85,9.85,0,0,0,1.48.25A9.85,9.85,0,0,1,43.72,8a3.24,3.24,0,0,1-.95-.37.63.63,0,0,1-.34-.48A.69.69,0,0,1,42.75,6.6Z"/></clipPath><clipPath id="clip-path-28"><path class="cls-1" d="M45.2,8.25,34.46,17.6Z"/></clipPath><clipPath id="clip-path-29"><polygon class="cls-1" points="34.46 17.6 34.46 17.6 34.46 17.6 34.46 17.6 34.47 17.6 34.46 17.6 34.46 17.6 34.46 17.6 34.46 17.6"/></clipPath><clipPath id="clip-path-30"><path class="cls-1" d="M34.46,17.6c-.73.06-1.44.15-2.12.26s-1.31.24-1.89.39a12,12,0,0,0-1.53.5,4.11,4.11,0,0,0-1,.57,4.11,4.11,0,0,1,1-.57,12,12,0,0,1,1.53-.5c.58-.15,1.22-.28,1.89-.39S33.73,17.66,34.46,17.6Z"/></clipPath><clipPath id="clip-path-31"><polygon class="cls-1" points="27.89 19.32 27.89 19.32 27.89 19.32 27.89 19.32 27.89 19.32 27.89 19.32 27.89 19.32 27.89 19.32 27.89 19.32"/></clipPath><clipPath id="clip-path-32"><path class="cls-1" d="M27.89,19.33c-.3.25-.4.49-.33.71a1.14,1.14,0,0,0,.72.58,6.65,6.65,0,0,0,1.64.4,17.12,17.12,0,0,0,2.42.15A17.12,17.12,0,0,1,29.92,21a6.65,6.65,0,0,1-1.64-.4,1.14,1.14,0,0,1-.72-.58C27.49,19.82,27.59,19.58,27.89,19.33Z"/></clipPath><clipPath id="clip-path-33"><polygon class="cls-1" points="32.35 21.17 32.35 21.17 32.35 21.17 32.34 21.17 32.34 21.17 32.34 21.17 32.34 21.17 32.34 21.17 32.35 21.17 32.35 21.17"/></clipPath><clipPath id="clip-path-34"><path class="cls-1" d="M32.35,21.17h0c.92,0,1.85-.05,2.76-.14s1.78-.23,2.57-.4a14.52,14.52,0,0,0,2.12-.58,4.63,4.63,0,0,0,1.35-.71,4.63,4.63,0,0,1-1.35.71,14.52,14.52,0,0,1-2.12.58c-.79.17-1.67.3-2.57.4S33.27,21.17,32.35,21.17Z"/></clipPath><clipPath id="clip-path-35"><polygon class="cls-1" points="41.15 19.34 41.15 19.34 41.15 19.34 41.15 19.34 41.15 19.34 41.15 19.34 41.15 19.34 41.15 19.34 41.15 19.34"/></clipPath><clipPath id="clip-path-36"><path class="cls-1" d="M41.15,19.34a1.56,1.56,0,0,0,.22-.23.67.67,0,0,0,.1-.21.46.46,0,0,0,0-.2.56.56,0,0,0-.08-.2.56.56,0,0,1,.08.2.46.46,0,0,1,0,.2.67.67,0,0,1-.1.21A1.56,1.56,0,0,1,41.15,19.34Z"/></clipPath><clipPath id="clip-path-37"><path class="cls-1" d="M41.4,18.5,72.94,8.17Z"/></clipPath><clipPath id="clip-path-38"><polygon class="cls-1" points="72.94 8.17 72.94 8.17 72.94 8.17 72.94 8.17 72.94 8.17 72.94 8.17 72.94 8.17 72.94 8.17 72.94 8.17"/></clipPath><clipPath id="clip-path-39"><path class="cls-1" d="M72.94,8.17l.12,0h.13l.12,0h0l-.12,0h-.13Z"/></clipPath><clipPath id="clip-path-40"><path class="cls-1" d="M73.44,8.23,63.12,17.62Z"/></clipPath><clipPath id="clip-path-41"><polygon class="cls-1" points="63.11 17.62 63.12 17.62 63.12 17.62 63.12 17.62 63.12 17.62 63.12 17.62 63.12 17.62 63.12 17.62 63.11 17.62"/></clipPath><clipPath id="clip-path-42"><path class="cls-1" d="M63.11,17.62c-.73.06-1.44.15-2.12.26s-1.31.24-1.88.39a11.29,11.29,0,0,0-1.52.5,4.17,4.17,0,0,0-1,.58,4.17,4.17,0,0,1,1-.58,11.29,11.29,0,0,1,1.52-.5c.57-.15,1.21-.28,1.88-.39S62.38,17.68,63.11,17.62Z"/></clipPath><clipPath id="clip-path-43"><polygon class="cls-1" points="56.59 19.36 56.59 19.36 56.59 19.36 56.59 19.36 56.6 19.35 56.59 19.36 56.59 19.36 56.59 19.36 56.59 19.36"/></clipPath><clipPath id="clip-path-44"><path class="cls-1" d="M56.59,19.36c-.28.25-.37.49-.28.71a1.24,1.24,0,0,0,.77.59,7,7,0,0,0,1.69.4,17.48,17.48,0,0,0,2.45.15,17.48,17.48,0,0,1-2.45-.15,7,7,0,0,1-1.69-.4,1.24,1.24,0,0,1-.77-.59C56.22,19.85,56.31,19.61,56.59,19.36Z"/></clipPath></defs><path class="cls-1" d="M88,2A10,10,0,0,1,98,12V38A10,10,0,0,1,88,48H12A10,10,0,0,1,2,38V12A10,10,0,0,1,12,2H88m0-2H12A12,12,0,0,0,0,12V38A12,12,0,0,0,12,50H88a12,12,0,0,0,12-12V12A12,12,0,0,0,88,0Z"/><g class="cls-2"><g class="cls-2"><path class="cls-1" d="M61.22,21.21a17.73,17.73,0,0,1-2.46-.15,7,7,0,0,1-1.68-.4,1.31,1.31,0,0,1-.77-.59c-.09-.22,0-.46.29-.72a4.06,4.06,0,0,1,1-.58,11.12,11.12,0,0,1,1.51-.5Q60,18,61,17.88c.68-.11,1.39-.2,2.12-.26L73.44,8.23h-.13l-.13,0h-.12l-.12,0L41.4,18.5a.56.56,0,0,1,.08.2.46.46,0,0,1,0,.2.53.53,0,0,1-.11.21,1.1,1.1,0,0,1-.21.23,4.57,4.57,0,0,1-1.36.71,15.24,15.24,0,0,1-2.11.59c-.8.16-1.67.3-2.58.39s-1.84.14-2.76.14A17.12,17.12,0,0,1,29.92,21a6.54,6.54,0,0,1-1.64-.4,1.14,1.14,0,0,1-.72-.58c-.07-.22,0-.46.34-.72a4.11,4.11,0,0,1,1-.57,12.15,12.15,0,0,1,1.54-.5c.58-.15,1.21-.29,1.89-.4s1.39-.19,2.11-.25L45.2,8.25A9.85,9.85,0,0,1,43.72,8a3,3,0,0,1-.95-.38.6.6,0,0,1-.34-.47.74.74,0,0,1,.33-.56,4.34,4.34,0,0,1,1.32-.67,14.87,14.87,0,0,1,2.05-.56A22.51,22.51,0,0,1,48.62,5a26.57,26.57,0,0,1,2.68-.14A16.49,16.49,0,0,1,53.66,5a7.11,7.11,0,0,1,1.62.37c.41.16.66.34.74.55s0,.44-.28.68a3.79,3.79,0,0,1-1,.55,10.85,10.85,0,0,1-1.49.49c-.56.14-1.19.27-1.85.38s-1.36.19-2.08.25L38.67,17.6l.16,0,.15,0,.15,0,.15,0L70.7,7.4a.5.5,0,0,1-.12-.19.38.38,0,0,1,0-.21.48.48,0,0,1,.09-.21.82.82,0,0,1,.2-.23,4.22,4.22,0,0,1,1.29-.68,14.54,14.54,0,0,1,2-.56A24.94,24.94,0,0,1,76.68,5a26.82,26.82,0,0,1,2.7-.14,17,17,0,0,1,2.39.13,7.63,7.63,0,0,1,1.67.37,1.38,1.38,0,0,1,.79.56c.1.21,0,.44-.24.68a3.83,3.83,0,0,1-.95.56,12.12,12.12,0,0,1-1.47.48A17.2,17.2,0,0,1,79.72,8c-.66.11-1.37.2-2.08.26L67.37,17.62a10.59,10.59,0,0,1,1.55.26,4.05,4.05,0,0,1,1,.4A.6.6,0,0,1,70,19.37a4.34,4.34,0,0,1-1.33.72,14.9,14.9,0,0,1-2.09.59c-.8.16-1.68.3-2.59.39S62.15,21.21,61.22,21.21Z"/><g class="cls-3"><path class="cls-1" d="M61.22,21.21a17.73,17.73,0,0,1-2.46-.15,7,7,0,0,1-1.68-.4,1.31,1.31,0,0,1-.77-.59c-.09-.22,0-.46.29-.72a4.06,4.06,0,0,1,1-.58,11.12,11.12,0,0,1,1.51-.5Q60,18,61,17.88c.68-.11,1.39-.2,2.12-.26L73.44,8.23h-.13l-.13,0h-.12l-.12,0L41.4,18.5a.56.56,0,0,1,.08.2.46.46,0,0,1,0,.2.53.53,0,0,1-.11.21,1.1,1.1,0,0,1-.21.23,4.57,4.57,0,0,1-1.36.71,15.24,15.24,0,0,1-2.11.59c-.8.16-1.67.3-2.58.39s-1.84.14-2.76.14A17.12,17.12,0,0,1,29.92,21a6.54,6.54,0,0,1-1.64-.4,1.14,1.14,0,0,1-.72-.58c-.07-.22,0-.46.34-.72a4.11,4.11,0,0,1,1-.57,12.15,12.15,0,0,1,1.54-.5c.58-.15,1.21-.29,1.89-.4s1.39-.19,2.11-.25L45.2,8.25A9.85,9.85,0,0,1,43.72,8a3,3,0,0,1-.95-.38.6.6,0,0,1-.34-.47.74.74,0,0,1,.33-.56,4.34,4.34,0,0,1,1.32-.67,14.87,14.87,0,0,1,2.05-.56A22.51,22.51,0,0,1,48.62,5a26.57,26.57,0,0,1,2.68-.14A16.49,16.49,0,0,1,53.66,5a7.11,7.11,0,0,1,1.62.37c.41.16.66.34.74.55s0,.44-.28.68a3.79,3.79,0,0,1-1,.55,10.85,10.85,0,0,1-1.49.49c-.56.14-1.19.27-1.85.38s-1.36.19-2.08.25L38.67,17.6l.16,0,.15,0,.15,0,.15,0L70.7,7.4a.5.5,0,0,1-.12-.19.38.38,0,0,1,0-.21.48.48,0,0,1,.09-.21.82.82,0,0,1,.2-.23,4.22,4.22,0,0,1,1.29-.68,14.54,14.54,0,0,1,2-.56A24.94,24.94,0,0,1,76.68,5a26.82,26.82,0,0,1,2.7-.14,17,17,0,0,1,2.39.13,7.63,7.63,0,0,1,1.67.37,1.38,1.38,0,0,1,.79.56c.1.21,0,.44-.24.68a3.83,3.83,0,0,1-.95.56,12.12,12.12,0,0,1-1.47.48A17.2,17.2,0,0,1,79.72,8c-.66.11-1.37.2-2.08.26L67.37,17.62a10.59,10.59,0,0,1,1.55.26,4.05,4.05,0,0,1,1,.4A.6.6,0,0,1,70,19.37a4.34,4.34,0,0,1-1.33.72,14.9,14.9,0,0,1-2.09.59c-.8.16-1.68.3-2.59.39S62.15,21.21,61.22,21.21Z"/></g></g><g class="cls-2"><path class="cls-1" d="M61.22,21.21a17.73,17.73,0,0,1-2.46-.15,7,7,0,0,1-1.68-.4,1.31,1.31,0,0,1-.77-.59c-.09-.22,0-.46.29-.72a4.06,4.06,0,0,1,1-.58,11.12,11.12,0,0,1,1.51-.5Q60,18,61,17.88c.68-.11,1.39-.2,2.12-.26L73.44,8.23h-.13l-.13,0h-.12l-.12,0L41.4,18.5a.56.56,0,0,1,.08.2.46.46,0,0,1,0,.2.53.53,0,0,1-.11.21,1.1,1.1,0,0,1-.21.23,4.57,4.57,0,0,1-1.36.71,15.24,15.24,0,0,1-2.11.59c-.8.16-1.67.3-2.58.39s-1.84.14-2.76.14A17.12,17.12,0,0,1,29.92,21a6.54,6.54,0,0,1-1.64-.4,1.14,1.14,0,0,1-.72-.58c-.07-.22,0-.46.34-.72a4.11,4.11,0,0,1,1-.57,12.15,12.15,0,0,1,1.54-.5c.58-.15,1.21-.29,1.89-.4s1.39-.19,2.11-.25L45.2,8.25A9.85,9.85,0,0,1,43.72,8a3,3,0,0,1-.95-.38.6.6,0,0,1-.34-.47.74.74,0,0,1,.33-.56,4.34,4.34,0,0,1,1.32-.67,14.87,14.87,0,0,1,2.05-.56A22.51,22.51,0,0,1,48.62,5a26.57,26.57,0,0,1,2.68-.14A16.49,16.49,0,0,1,53.66,5a7.11,7.11,0,0,1,1.62.37c.41.16.66.34.74.55s0,.44-.28.68a3.79,3.79,0,0,1-1,.55,10.85,10.85,0,0,1-1.49.49c-.56.14-1.19.27-1.85.38s-1.36.19-2.08.25L38.67,17.6l.16,0,.15,0,.15,0,.15,0L70.7,7.4a.5.5,0,0,1-.12-.19.38.38,0,0,1,0-.21.48.48,0,0,1,.09-.21.82.82,0,0,1,.2-.23,4.22,4.22,0,0,1,1.29-.68,14.54,14.54,0,0,1,2-.56A24.94,24.94,0,0,1,76.68,5a26.82,26.82,0,0,1,2.7-.14,17,17,0,0,1,2.39.13,7.63,7.63,0,0,1,1.67.37,1.38,1.38,0,0,1,.79.56c.1.21,0,.44-.24.68a3.83,3.83,0,0,1-.95.56,12.12,12.12,0,0,1-1.47.48A17.2,17.2,0,0,1,79.72,8c-.66.11-1.37.2-2.08.26L67.37,17.62a10.59,10.59,0,0,1,1.55.26,4.05,4.05,0,0,1,1,.4A.6.6,0,0,1,70,19.37a4.34,4.34,0,0,1-1.33.72,14.9,14.9,0,0,1-2.09.59c-.8.16-1.68.3-2.59.39S62.15,21.21,61.22,21.21Z"/><g class="cls-3"><path class="cls-1" d="M61.22,21.21a17.73,17.73,0,0,1-2.46-.15,7,7,0,0,1-1.68-.4,1.31,1.31,0,0,1-.77-.59c-.09-.22,0-.46.29-.72a4.06,4.06,0,0,1,1-.58,11.12,11.12,0,0,1,1.51-.5Q60,18,61,17.88c.68-.11,1.39-.2,2.12-.26L73.44,8.23h-.13l-.13,0h-.12l-.12,0L41.4,18.5a.56.56,0,0,1,.08.2.46.46,0,0,1,0,.2.53.53,0,0,1-.11.21,1.1,1.1,0,0,1-.21.23,4.57,4.57,0,0,1-1.36.71,15.24,15.24,0,0,1-2.11.59c-.8.16-1.67.3-2.58.39s-1.84.14-2.76.14A17.12,17.12,0,0,1,29.92,21a6.54,6.54,0,0,1-1.64-.4,1.14,1.14,0,0,1-.72-.58c-.07-.22,0-.46.34-.72a4.11,4.11,0,0,1,1-.57,12.15,12.15,0,0,1,1.54-.5c.58-.15,1.21-.29,1.89-.4s1.39-.19,2.11-.25L45.2,8.25A9.85,9.85,0,0,1,43.72,8a3,3,0,0,1-.95-.38.6.6,0,0,1-.34-.47.74.74,0,0,1,.33-.56,4.34,4.34,0,0,1,1.32-.67,14.87,14.87,0,0,1,2.05-.56A22.51,22.51,0,0,1,48.62,5a26.57,26.57,0,0,1,2.68-.14A16.49,16.49,0,0,1,53.66,5a7.11,7.11,0,0,1,1.62.37c.41.16.66.34.74.55s0,.44-.28.68a3.79,3.79,0,0,1-1,.55,10.85,10.85,0,0,1-1.49.49c-.56.14-1.19.27-1.85.38s-1.36.19-2.08.25L38.67,17.6l.16,0,.15,0,.15,0,.15,0L70.7,7.4a.5.5,0,0,1-.12-.19.38.38,0,0,1,0-.21.48.48,0,0,1,.09-.21.82.82,0,0,1,.2-.23,4.22,4.22,0,0,1,1.29-.68,14.54,14.54,0,0,1,2-.56A24.94,24.94,0,0,1,76.68,5a26.82,26.82,0,0,1,2.7-.14,17,17,0,0,1,2.39.13,7.63,7.63,0,0,1,1.67.37,1.38,1.38,0,0,1,.79.56c.1.21,0,.44-.24.68a3.83,3.83,0,0,1-.95.56,12.12,12.12,0,0,1-1.47.48A17.2,17.2,0,0,1,79.72,8c-.66.11-1.37.2-2.08.26L67.37,17.62a10.59,10.59,0,0,1,1.55.26,4.05,4.05,0,0,1,1,.4A.6.6,0,0,1,70,19.37a4.34,4.34,0,0,1-1.33.72,14.9,14.9,0,0,1-2.09.59c-.8.16-1.68.3-2.59.39S62.15,21.21,61.22,21.21Z"/></g></g><g class="cls-2"><polygon class="cls-1" points="61.23 21.21 61.23 21.21 61.23 21.21 61.22 21.21 61.22 21.21 61.22 21.21 61.22 21.21 61.22 21.21 61.23 21.21 61.23 21.21"/><g class="cls-4"><g class="cls-2"><path class="cls-1" d="M61.22,21.21c.93,0,1.87-.05,2.78-.14s1.79-.23,2.59-.39a14.9,14.9,0,0,0,2.09-.59A4.34,4.34,0,0,0,70,19.37a4.34,4.34,0,0,1-1.33.72,14.9,14.9,0,0,1-2.09.59c-.8.16-1.68.3-2.59.39S62.15,21.21,61.22,21.21Z"/></g><polygon class="cls-1" points="61.23 21.21 61.23 21.21 61.23 21.21 61.22 21.21 61.22 21.21 61.22 21.21 61.22 21.21 61.22 21.21 61.23 21.21 61.23 21.21"/></g></g><g class="cls-2"><path class="cls-1" d="M61.23,21.21h0c.93,0,1.87-.05,2.78-.14a23.31,23.31,0,0,0,2.58-.4,13.4,13.4,0,0,0,2.09-.58A4.34,4.34,0,0,0,70,19.37a4.34,4.34,0,0,1-1.33.72,13.4,13.4,0,0,1-2.09.58,23.31,23.31,0,0,1-2.58.4C63.1,21.16,62.16,21.21,61.23,21.21Z"/><g class="cls-5"><g class="cls-2"><path class="cls-1" d="M61.22,21.21c.93,0,1.87-.05,2.78-.14s1.79-.23,2.59-.39a14.9,14.9,0,0,0,2.09-.59A4.34,4.34,0,0,0,70,19.37a4.34,4.34,0,0,1-1.33.72,14.9,14.9,0,0,1-2.09.59c-.8.16-1.68.3-2.59.39S62.15,21.21,61.22,21.21Z"/><line class="cls-1" x1="64.9" y1="20.96" x2="64.9" y2="20.96"/><line class="cls-1" x1="68.06" y1="20.3" x2="68.06" y2="20.3"/></g><path class="cls-1" d="M61.23,21.21h0c.93,0,1.87-.05,2.78-.14a23.31,23.31,0,0,0,2.58-.4,13.4,13.4,0,0,0,2.09-.58A4.34,4.34,0,0,0,70,19.37a4.34,4.34,0,0,1-1.33.72,13.4,13.4,0,0,1-2.09.58,23.31,23.31,0,0,1-2.58.4C63.1,21.16,62.16,21.21,61.23,21.21Z"/></g></g><g class="cls-2"><polygon class="cls-1" points="70.01 19.37 70.01 19.37 70.01 19.37 70.01 19.37 70.01 19.37 70.01 19.37 70.01 19.37 70.01 19.37 70.01 19.37"/><g class="cls-6"><g class="cls-2"><path class="cls-1" d="M70,19.37a.6.6,0,0,0-.09-1.09,4.05,4.05,0,0,0-1-.4,10.59,10.59,0,0,0-1.55-.26,10.59,10.59,0,0,1,1.55.26,4.05,4.05,0,0,1,1,.4A.6.6,0,0,1,70,19.37Z"/></g><polygon class="cls-1" points="70.01 19.37 70.01 19.37 70.01 19.37 70.01 19.37 70.01 19.37 70.01 19.37 70.01 19.37 70.01 19.37 70.01 19.37"/></g></g><g class="cls-2"><path class="cls-1" d="M70,19.37a.71.71,0,0,0,.3-.59.72.72,0,0,0-.39-.5,3.65,3.65,0,0,0-1-.4,10.2,10.2,0,0,0-1.54-.26,10.2,10.2,0,0,1,1.54.26,3.65,3.65,0,0,1,1,.4.72.72,0,0,1,.39.5A.71.71,0,0,1,70,19.37Z"/><g class="cls-7"><g class="cls-2"><path class="cls-1" d="M70,19.37a.6.6,0,0,0-.09-1.09,4.05,4.05,0,0,0-1-.4,10.59,10.59,0,0,0-1.55-.26,10.59,10.59,0,0,1,1.55.26,4.05,4.05,0,0,1,1,.4A.6.6,0,0,1,70,19.37Z"/></g><path class="cls-1" d="M70,19.37a.71.71,0,0,0,.3-.59.72.72,0,0,0-.39-.5,3.65,3.65,0,0,0-1-.4,10.2,10.2,0,0,0-1.54-.26,10.2,10.2,0,0,1,1.54.26,3.65,3.65,0,0,1,1,.4.72.72,0,0,1,.39.5A.71.71,0,0,1,70,19.37Z"/></g></g><g class="cls-2"><path class="cls-1" d="M67.37,17.62,77.64,8.23Z"/><g class="cls-8"><path class="cls-1" d="M67.37,17.62,77.64,8.23Z"/></g></g><g class="cls-2"><polygon class="cls-1" points="77.64 8.23 77.64 8.23 77.64 8.23 77.64 8.23 77.64 8.23 77.64 8.23 77.64 8.23 77.64 8.23 77.64 8.23"/><g class="cls-9"><g class="cls-2"><path class="cls-1" d="M77.64,8.23c.71-.06,1.42-.15,2.08-.26a17.2,17.2,0,0,0,1.85-.38A12.12,12.12,0,0,0,83,7.11,3.83,3.83,0,0,0,84,6.55a3.83,3.83,0,0,1-.95.56,12.12,12.12,0,0,1-1.47.48A17.2,17.2,0,0,1,79.72,8C79.06,8.08,78.35,8.17,77.64,8.23Z"/></g><polygon class="cls-1" points="77.64 8.23 77.64 8.23 77.64 8.23 77.64 8.23 77.64 8.23 77.64 8.23 77.64 8.23 77.64 8.23 77.64 8.23"/></g></g><g class="cls-2"><path class="cls-1" d="M77.64,8.23c.72-.06,1.42-.15,2.09-.26a17,17,0,0,0,1.84-.38A12.12,12.12,0,0,0,83,7.11,3.83,3.83,0,0,0,84,6.55a3.83,3.83,0,0,1-.95.56,12.12,12.12,0,0,1-1.47.48A17,17,0,0,1,79.73,8C79.06,8.08,78.36,8.17,77.64,8.23Z"/><g class="cls-10"><g class="cls-2"><path class="cls-1" d="M77.64,8.23c.71-.06,1.42-.15,2.08-.26a17.2,17.2,0,0,0,1.85-.38A12.12,12.12,0,0,0,83,7.11,3.83,3.83,0,0,0,84,6.55a3.83,3.83,0,0,1-.95.56,12.12,12.12,0,0,1-1.47.48A17.2,17.2,0,0,1,79.72,8C79.06,8.08,78.35,8.17,77.64,8.23Z"/></g><path class="cls-1" d="M77.64,8.23c.72-.06,1.42-.15,2.09-.26a17,17,0,0,0,1.84-.38A12.12,12.12,0,0,0,83,7.11,3.83,3.83,0,0,0,84,6.55a3.83,3.83,0,0,1-.95.56,12.12,12.12,0,0,1-1.47.48A17,17,0,0,1,79.73,8C79.06,8.08,78.36,8.17,77.64,8.23Z"/></g></g><g class="cls-2"><polygon class="cls-1" points="83.99 6.55 83.99 6.55 83.99 6.55 83.99 6.55 83.99 6.55 83.99 6.55 83.99 6.55 83.99 6.55 83.99 6.55"/><g class="cls-11"><g class="cls-2"><path class="cls-1" d="M84,6.55c.27-.24.34-.47.24-.68a1.38,1.38,0,0,0-.79-.56,7.63,7.63,0,0,0-1.67-.37,17,17,0,0,0-2.39-.13,17,17,0,0,1,2.39.13,7.63,7.63,0,0,1,1.67.37,1.38,1.38,0,0,1,.79.56C84.33,6.08,84.26,6.31,84,6.55Z"/></g><polygon class="cls-1" points="83.99 6.55 83.99 6.55 83.99 6.55 83.99 6.55 83.99 6.55 83.99 6.55 83.99 6.55 83.99 6.55 83.99 6.55"/></g></g><g class="cls-2"><path class="cls-1" d="M84,6.55c.27-.25.34-.48.24-.69a1.43,1.43,0,0,0-.79-.55,7.63,7.63,0,0,0-1.67-.37,17,17,0,0,0-2.39-.13,17,17,0,0,1,2.39.13,7.63,7.63,0,0,1,1.67.37,1.43,1.43,0,0,1,.79.55C84.33,6.07,84.26,6.3,84,6.55Z"/><g class="cls-12"><g class="cls-2"><path class="cls-1" d="M84,6.55c.27-.24.34-.47.24-.68a1.38,1.38,0,0,0-.79-.56,7.63,7.63,0,0,0-1.67-.37,17,17,0,0,0-2.39-.13,17,17,0,0,1,2.39.13,7.63,7.63,0,0,1,1.67.37,1.38,1.38,0,0,1,.79.56C84.33,6.08,84.26,6.31,84,6.55Z"/></g><path class="cls-1" d="M84,6.55c.27-.25.34-.48.24-.69a1.43,1.43,0,0,0-.79-.55,7.63,7.63,0,0,0-1.67-.37,17,17,0,0,0-2.39-.13,17,17,0,0,1,2.39.13,7.63,7.63,0,0,1,1.67.37,1.43,1.43,0,0,1,.79.55C84.33,6.07,84.26,6.3,84,6.55Z"/></g></g><g class="cls-2"><polygon class="cls-1" points="79.37 4.81 79.37 4.81 79.37 4.81 79.37 4.81 79.38 4.81 79.38 4.81 79.38 4.81 79.37 4.81 79.37 4.81 79.37 4.81"/><g class="cls-13"><g class="cls-2"><path class="cls-1" d="M79.38,4.81a26.82,26.82,0,0,0-2.7.14,24.94,24.94,0,0,0-2.5.37,14.54,14.54,0,0,0-2,.56,4.22,4.22,0,0,0-1.29.68,4.22,4.22,0,0,1,1.29-.68,14.54,14.54,0,0,1,2-.56A24.94,24.94,0,0,1,76.68,5,26.82,26.82,0,0,1,79.38,4.81Z"/></g><polygon class="cls-1" points="79.37 4.81 79.37 4.81 79.37 4.81 79.37 4.81 79.38 4.81 79.38 4.81 79.38 4.81 79.37 4.81 79.37 4.81 79.37 4.81"/></g></g><g class="cls-2"><path class="cls-1" d="M79.37,4.81h0a26.82,26.82,0,0,0-2.7.14c-.88.09-1.73.22-2.5.37a14,14,0,0,0-2,.56,4.22,4.22,0,0,0-1.29.68,4.22,4.22,0,0,1,1.29-.68,14,14,0,0,1,2-.56c.77-.15,1.62-.28,2.5-.37A26.82,26.82,0,0,1,79.37,4.81Z"/><g class="cls-14"><g class="cls-2"><path class="cls-1" d="M79.38,4.81a26.82,26.82,0,0,0-2.7.14,24.94,24.94,0,0,0-2.5.37,14.54,14.54,0,0,0-2,.56,4.22,4.22,0,0,0-1.29.68,4.22,4.22,0,0,1,1.29-.68,14.54,14.54,0,0,1,2-.56A24.94,24.94,0,0,1,76.68,5,26.82,26.82,0,0,1,79.38,4.81Z"/><line class="cls-1" x1="75.81" y1="5.05" x2="75.81" y2="5.05"/><line class="cls-1" x1="72.76" y1="5.68" x2="72.76" y2="5.68"/></g><path class="cls-1" d="M79.37,4.81h0a26.82,26.82,0,0,0-2.7.14c-.88.09-1.73.22-2.5.37a14,14,0,0,0-2,.56,4.22,4.22,0,0,0-1.29.68,4.22,4.22,0,0,1,1.29-.68,14,14,0,0,1,2-.56c.77-.15,1.62-.28,2.5-.37A26.82,26.82,0,0,1,79.37,4.81Z"/></g></g><g class="cls-2"><polygon class="cls-1" points="70.86 6.57 70.86 6.57 70.86 6.57 70.86 6.56 70.86 6.56 70.86 6.56 70.86 6.57 70.86 6.57 70.86 6.57"/><g class="cls-15"><g class="cls-2"><path class="cls-1" d="M70.86,6.56a.82.82,0,0,0-.2.23.48.48,0,0,0-.09.21.38.38,0,0,0,0,.21.5.5,0,0,0,.12.19.5.5,0,0,1-.12-.19.38.38,0,0,1,0-.21.48.48,0,0,1,.09-.21A.82.82,0,0,1,70.86,6.56Z"/></g><polygon class="cls-1" points="70.86 6.57 70.86 6.57 70.86 6.57 70.86 6.56 70.86 6.56 70.86 6.56 70.86 6.57 70.86 6.57 70.86 6.57"/></g></g><g class="cls-2"><path class="cls-1" d="M70.86,6.57a.8.8,0,0,0-.2.22.48.48,0,0,0-.09.21.38.38,0,0,0,0,.21.5.5,0,0,0,.12.19.5.5,0,0,1-.12-.19.38.38,0,0,1,0-.21.48.48,0,0,1,.09-.21A.8.8,0,0,1,70.86,6.57Z"/><g class="cls-16"><g class="cls-2"><path class="cls-1" d="M70.86,6.56a.82.82,0,0,0-.2.23.48.48,0,0,0-.09.21.38.38,0,0,0,0,.21.5.5,0,0,0,.12.19.5.5,0,0,1-.12-.19.38.38,0,0,1,0-.21.48.48,0,0,1,.09-.21A.82.82,0,0,1,70.86,6.56Z"/></g><path class="cls-1" d="M70.86,6.57a.8.8,0,0,0-.2.22.48.48,0,0,0-.09.21.38.38,0,0,0,0,.21.5.5,0,0,0,.12.19.5.5,0,0,1-.12-.19.38.38,0,0,1,0-.21.48.48,0,0,1,.09-.21A.8.8,0,0,1,70.86,6.57Z"/></g></g><g class="cls-2"><path class="cls-1" d="M70.7,7.4,39.28,17.68Z"/><g class="cls-17"><path class="cls-1" d="M70.7,7.4,39.28,17.68Z"/></g></g><g class="cls-2"><polygon class="cls-1" points="39.28 17.68 39.28 17.68 39.28 17.68 39.28 17.68 39.28 17.68 39.28 17.68 39.28 17.68 39.28 17.68 39.28 17.68"/><g class="cls-18"><g class="cls-2"><path class="cls-1" d="M39.28,17.68l-.15,0-.15,0-.15,0-.16,0,.16,0,.15,0,.15,0Z"/></g><polygon class="cls-1" points="39.28 17.68 39.28 17.68 39.28 17.68 39.28 17.68 39.28 17.68 39.28 17.68 39.28 17.68 39.28 17.68 39.28 17.68"/></g></g><g class="cls-2"><path class="cls-1" d="M39.28,17.68l-.15,0-.15,0-.15,0-.16,0,.16,0,.15,0,.15,0Z"/><g class="cls-19"><g class="cls-2"><path class="cls-1" d="M39.28,17.68l-.15,0-.15,0-.15,0-.16,0,.16,0,.15,0,.15,0Z"/><line class="cls-1" x1="39.08" y1="17.65" x2="39.08" y2="17.65"/></g><path class="cls-1" d="M39.28,17.68l-.15,0-.15,0-.15,0-.16,0,.16,0,.15,0,.15,0Z"/></g></g><g class="cls-2"><path class="cls-1" d="M38.67,17.6,49.34,8.25Z"/><g class="cls-20"><path class="cls-1" d="M38.67,17.6,49.34,8.25Z"/></g></g><g class="cls-2"><polygon class="cls-1" points="49.35 8.25 49.35 8.25 49.35 8.25 49.34 8.25 49.34 8.25 49.34 8.25 49.35 8.25 49.35 8.25 49.35 8.25"/><g class="cls-21"><g class="cls-2"><path class="cls-1" d="M49.34,8.25c.72-.06,1.42-.15,2.08-.25s1.29-.24,1.85-.38a10.85,10.85,0,0,0,1.49-.49,3.79,3.79,0,0,0,1-.55,3.79,3.79,0,0,1-1,.55,10.85,10.85,0,0,1-1.49.49c-.56.14-1.19.27-1.85.38S50.06,8.19,49.34,8.25Z"/></g><polygon class="cls-1" points="49.35 8.25 49.35 8.25 49.35 8.25 49.34 8.25 49.34 8.25 49.34 8.25 49.35 8.25 49.35 8.25 49.35 8.25"/></g></g><g class="cls-2"><path class="cls-1" d="M49.35,8.25c.71-.06,1.41-.15,2.08-.25s1.28-.24,1.85-.39a9.91,9.91,0,0,0,1.48-.48,3.79,3.79,0,0,0,1-.55,3.79,3.79,0,0,1-1,.55,9.91,9.91,0,0,1-1.48.48c-.57.15-1.19.28-1.85.39S50.06,8.19,49.35,8.25Z"/><g class="cls-22"><g class="cls-2"><path class="cls-1" d="M49.34,8.25c.72-.06,1.42-.15,2.08-.25s1.29-.24,1.85-.38a10.85,10.85,0,0,0,1.49-.49,3.79,3.79,0,0,0,1-.55,3.79,3.79,0,0,1-1,.55,10.85,10.85,0,0,1-1.49.49c-.56.14-1.19.27-1.85.38S50.06,8.19,49.34,8.25Z"/></g><path class="cls-1" d="M49.35,8.25c.71-.06,1.41-.15,2.08-.25s1.28-.24,1.85-.39a9.91,9.91,0,0,0,1.48-.48,3.79,3.79,0,0,0,1-.55,3.79,3.79,0,0,1-1,.55,9.91,9.91,0,0,1-1.48.48c-.57.15-1.19.28-1.85.39S50.06,8.19,49.35,8.25Z"/></g></g><g class="cls-2"><polygon class="cls-1" points="55.74 6.58 55.74 6.58 55.74 6.58 55.74 6.58 55.74 6.58 55.74 6.58 55.74 6.58 55.74 6.58 55.74 6.58"/><g class="cls-23"><g class="cls-2"><path class="cls-1" d="M55.74,6.58c.28-.24.37-.47.28-.68s-.33-.39-.74-.55A7.11,7.11,0,0,0,53.66,5a16.49,16.49,0,0,0-2.36-.13A16.49,16.49,0,0,1,53.66,5a7.11,7.11,0,0,1,1.62.37c.41.16.66.34.74.55S56,6.34,55.74,6.58Z"/></g><polygon class="cls-1" points="55.74 6.58 55.74 6.58 55.74 6.58 55.74 6.58 55.74 6.58 55.74 6.58 55.74 6.58 55.74 6.58 55.74 6.58"/></g></g><g class="cls-2"><path class="cls-1" d="M55.74,6.58c.28-.24.37-.47.28-.68a1.19,1.19,0,0,0-.74-.55A7.11,7.11,0,0,0,53.66,5a16.49,16.49,0,0,0-2.36-.13A16.49,16.49,0,0,1,53.66,5a7.11,7.11,0,0,1,1.62.37A1.19,1.19,0,0,1,56,5.9C56.11,6.11,56,6.34,55.74,6.58Z"/><g class="cls-24"><g class="cls-2"><path class="cls-1" d="M55.74,6.58c.28-.24.37-.47.28-.68s-.33-.39-.74-.55A7.11,7.11,0,0,0,53.66,5a16.49,16.49,0,0,0-2.36-.13A16.49,16.49,0,0,1,53.66,5a7.11,7.11,0,0,1,1.62.37c.41.16.66.34.74.55S56,6.34,55.74,6.58Z"/></g><path class="cls-1" d="M55.74,6.58c.28-.24.37-.47.28-.68a1.19,1.19,0,0,0-.74-.55A7.11,7.11,0,0,0,53.66,5a16.49,16.49,0,0,0-2.36-.13A16.49,16.49,0,0,1,53.66,5a7.11,7.11,0,0,1,1.62.37A1.19,1.19,0,0,1,56,5.9C56.11,6.11,56,6.34,55.74,6.58Z"/></g></g><g class="cls-2"><polygon class="cls-1" points="51.29 4.85 51.29 4.85 51.3 4.85 51.3 4.85 51.3 4.85 51.3 4.85 51.3 4.85 51.3 4.85 51.3 4.85 51.29 4.85"/><g class="cls-25"><g class="cls-2"><path class="cls-1" d="M51.3,4.85A26.57,26.57,0,0,0,48.62,5a22.51,22.51,0,0,0-2.49.37,14.87,14.87,0,0,0-2.05.56,4.34,4.34,0,0,0-1.32.67,4.34,4.34,0,0,1,1.32-.67,14.87,14.87,0,0,1,2.05-.56A22.51,22.51,0,0,1,48.62,5,26.57,26.57,0,0,1,51.3,4.85Z"/></g><polygon class="cls-1" points="51.29 4.85 51.29 4.85 51.3 4.85 51.3 4.85 51.3 4.85 51.3 4.85 51.3 4.85 51.3 4.85 51.3 4.85 51.29 4.85"/></g></g><g class="cls-2"><path class="cls-1" d="M51.29,4.85h0A26.22,26.22,0,0,0,48.62,5a24.94,24.94,0,0,0-2.5.37,14.71,14.71,0,0,0-2,.56,4.34,4.34,0,0,0-1.32.67,4.34,4.34,0,0,1,1.32-.67,14.71,14.71,0,0,1,2-.56A24.94,24.94,0,0,1,48.62,5,26.22,26.22,0,0,1,51.29,4.85Z"/><g class="cls-26"><g class="cls-2"><path class="cls-1" d="M51.3,4.85A26.57,26.57,0,0,0,48.62,5a22.51,22.51,0,0,0-2.49.37,14.87,14.87,0,0,0-2.05.56,4.34,4.34,0,0,0-1.32.67,4.34,4.34,0,0,1,1.32-.67,14.87,14.87,0,0,1,2.05-.56A22.51,22.51,0,0,1,48.62,5,26.57,26.57,0,0,1,51.3,4.85Z"/><line class="cls-1" x1="47.76" y1="5.09" x2="47.76" y2="5.09"/><line class="cls-1" x1="44.69" y1="5.71" x2="44.69" y2="5.71"/></g><path class="cls-1" d="M51.29,4.85h0A26.22,26.22,0,0,0,48.62,5a24.94,24.94,0,0,0-2.5.37,14.71,14.71,0,0,0-2,.56,4.34,4.34,0,0,0-1.32.67,4.34,4.34,0,0,1,1.32-.67,14.71,14.71,0,0,1,2-.56A24.94,24.94,0,0,1,48.62,5,26.22,26.22,0,0,1,51.29,4.85Z"/></g></g><g class="cls-2"><polygon class="cls-1" points="42.75 6.6 42.75 6.6 42.76 6.6 42.76 6.59 42.76 6.59 42.76 6.59 42.76 6.59 42.76 6.59 42.76 6.6 42.75 6.6"/><g class="cls-27"><g class="cls-2"><path class="cls-1" d="M42.76,6.59a.74.74,0,0,0-.33.56.6.6,0,0,0,.34.47,3,3,0,0,0,.95.38,9.85,9.85,0,0,0,1.48.25A9.85,9.85,0,0,1,43.72,8a3,3,0,0,1-.95-.38.6.6,0,0,1-.34-.47A.74.74,0,0,1,42.76,6.59Z"/></g><polygon class="cls-1" points="42.75 6.6 42.75 6.6 42.76 6.6 42.76 6.59 42.76 6.59 42.76 6.59 42.76 6.59 42.76 6.59 42.76 6.6 42.75 6.6"/></g></g><g class="cls-2"><path class="cls-1" d="M42.75,6.6h0a.69.69,0,0,0-.32.55.63.63,0,0,0,.34.48,3.24,3.24,0,0,0,.95.37,9.85,9.85,0,0,0,1.48.25A9.85,9.85,0,0,1,43.72,8a3.24,3.24,0,0,1-.95-.37.63.63,0,0,1-.34-.48A.69.69,0,0,1,42.75,6.6Z"/><g class="cls-28"><g class="cls-2"><path class="cls-1" d="M42.76,6.59a.74.74,0,0,0-.33.56.6.6,0,0,0,.34.47,3,3,0,0,0,.95.38,9.85,9.85,0,0,0,1.48.25A9.85,9.85,0,0,1,43.72,8a3,3,0,0,1-.95-.38.6.6,0,0,1-.34-.47A.74.74,0,0,1,42.76,6.59Z"/></g><path class="cls-1" d="M42.75,6.6h0a.69.69,0,0,0-.32.55.63.63,0,0,0,.34.48,3.24,3.24,0,0,0,.95.37,9.85,9.85,0,0,0,1.48.25A9.85,9.85,0,0,1,43.72,8a3.24,3.24,0,0,1-.95-.37.63.63,0,0,1-.34-.48A.69.69,0,0,1,42.75,6.6Z"/></g></g><g class="cls-2"><path class="cls-1" d="M45.2,8.25,34.46,17.6Z"/><g class="cls-29"><path class="cls-1" d="M45.2,8.25,34.46,17.6Z"/></g></g><g class="cls-2"><polygon class="cls-1" points="34.46 17.6 34.46 17.6 34.46 17.6 34.46 17.6 34.47 17.6 34.46 17.6 34.46 17.6 34.46 17.6 34.46 17.6"/><g class="cls-30"><g class="cls-2"><path class="cls-1" d="M34.46,17.6c-.72.06-1.43.14-2.11.25s-1.31.25-1.89.4a12.15,12.15,0,0,0-1.54.5,4.11,4.11,0,0,0-1,.57,4.11,4.11,0,0,1,1-.57,12.15,12.15,0,0,1,1.54-.5c.58-.15,1.21-.29,1.89-.4S33.74,17.66,34.46,17.6Z"/></g><polygon class="cls-1" points="34.46 17.6 34.46 17.6 34.46 17.6 34.46 17.6 34.47 17.6 34.46 17.6 34.46 17.6 34.46 17.6 34.46 17.6"/></g></g><g class="cls-2"><path class="cls-1" d="M34.46,17.6c-.73.06-1.44.15-2.12.26s-1.31.24-1.89.39a12,12,0,0,0-1.53.5,4.11,4.11,0,0,0-1,.57,4.11,4.11,0,0,1,1-.57,12,12,0,0,1,1.53-.5c.58-.15,1.22-.28,1.89-.39S33.73,17.66,34.46,17.6Z"/><g class="cls-31"><g class="cls-2"><path class="cls-1" d="M34.46,17.6c-.72.06-1.43.14-2.11.25s-1.31.25-1.89.4a12.15,12.15,0,0,0-1.54.5,4.11,4.11,0,0,0-1,.57,4.11,4.11,0,0,1,1-.57,12.15,12.15,0,0,1,1.54-.5c.58-.15,1.21-.29,1.89-.4S33.74,17.66,34.46,17.6Z"/></g><path class="cls-1" d="M34.46,17.6c-.73.06-1.44.15-2.12.26s-1.31.24-1.89.39a12,12,0,0,0-1.53.5,4.11,4.11,0,0,0-1,.57,4.11,4.11,0,0,1,1-.57,12,12,0,0,1,1.53-.5c.58-.15,1.22-.28,1.89-.39S33.73,17.66,34.46,17.6Z"/></g></g><g class="cls-2"><polygon class="cls-1" points="27.89 19.32 27.89 19.32 27.89 19.32 27.89 19.32 27.89 19.32 27.89 19.32 27.89 19.32 27.89 19.32 27.89 19.32"/><g class="cls-32"><g class="cls-2"><path class="cls-1" d="M27.9,19.32c-.31.26-.41.5-.34.72a1.14,1.14,0,0,0,.72.58,6.54,6.54,0,0,0,1.64.4,17.12,17.12,0,0,0,2.42.15A17.12,17.12,0,0,1,29.92,21a6.54,6.54,0,0,1-1.64-.4,1.14,1.14,0,0,1-.72-.58C27.49,19.82,27.59,19.58,27.9,19.32Z"/></g><polygon class="cls-1" points="27.89 19.32 27.89 19.32 27.89 19.32 27.89 19.32 27.89 19.32 27.89 19.32 27.89 19.32 27.89 19.32 27.89 19.32"/></g></g><g class="cls-2"><path class="cls-1" d="M27.89,19.33c-.3.25-.4.49-.33.71a1.14,1.14,0,0,0,.72.58,6.65,6.65,0,0,0,1.64.4,17.12,17.12,0,0,0,2.42.15A17.12,17.12,0,0,1,29.92,21a6.65,6.65,0,0,1-1.64-.4,1.14,1.14,0,0,1-.72-.58C27.49,19.82,27.59,19.58,27.89,19.33Z"/><g class="cls-33"><g class="cls-2"><path class="cls-1" d="M27.9,19.32c-.31.26-.41.5-.34.72a1.14,1.14,0,0,0,.72.58,6.54,6.54,0,0,0,1.64.4,17.12,17.12,0,0,0,2.42.15A17.12,17.12,0,0,1,29.92,21a6.54,6.54,0,0,1-1.64-.4,1.14,1.14,0,0,1-.72-.58C27.49,19.82,27.59,19.58,27.9,19.32Z"/><line class="cls-1" x1="29.28" y1="20.91" x2="29.28" y2="20.91"/></g><path class="cls-1" d="M27.89,19.33c-.3.25-.4.49-.33.71a1.14,1.14,0,0,0,.72.58,6.65,6.65,0,0,0,1.64.4,17.12,17.12,0,0,0,2.42.15A17.12,17.12,0,0,1,29.92,21a6.65,6.65,0,0,1-1.64-.4,1.14,1.14,0,0,1-.72-.58C27.49,19.82,27.59,19.58,27.89,19.33Z"/></g></g><g class="cls-2"><polygon class="cls-1" points="32.35 21.17 32.35 21.17 32.35 21.17 32.34 21.17 32.34 21.17 32.34 21.17 32.34 21.17 32.34 21.17 32.35 21.17 32.35 21.17"/><g class="cls-34"><g class="cls-2"><path class="cls-1" d="M32.34,21.17c.92,0,1.85-.05,2.76-.14s1.78-.23,2.58-.39a15.24,15.24,0,0,0,2.11-.59,4.57,4.57,0,0,0,1.36-.71,4.57,4.57,0,0,1-1.36.71,15.24,15.24,0,0,1-2.11.59c-.8.16-1.67.3-2.58.39S33.26,21.17,32.34,21.17Z"/></g><polygon class="cls-1" points="32.35 21.17 32.35 21.17 32.35 21.17 32.34 21.17 32.34 21.17 32.34 21.17 32.34 21.17 32.34 21.17 32.35 21.17 32.35 21.17"/></g></g><g class="cls-2"><path class="cls-1" d="M32.35,21.17h0c.92,0,1.85-.05,2.76-.14s1.78-.23,2.57-.4a14.52,14.52,0,0,0,2.12-.58,4.63,4.63,0,0,0,1.35-.71,4.63,4.63,0,0,1-1.35.71,14.52,14.52,0,0,1-2.12.58c-.79.17-1.67.3-2.57.4S33.27,21.17,32.35,21.17Z"/><g class="cls-35"><g class="cls-2"><path class="cls-1" d="M32.34,21.17c.92,0,1.85-.05,2.76-.14s1.78-.23,2.58-.39a15.24,15.24,0,0,0,2.11-.59,4.57,4.57,0,0,0,1.36-.71,4.57,4.57,0,0,1-1.36.71,15.24,15.24,0,0,1-2.11.59c-.8.16-1.67.3-2.58.39S33.26,21.17,32.34,21.17Z"/><line class="cls-1" x1="35.99" y1="20.92" x2="35.99" y2="20.92"/><line class="cls-1" x1="39.16" y1="20.26" x2="39.16" y2="20.26"/></g><path class="cls-1" d="M32.35,21.17h0c.92,0,1.85-.05,2.76-.14s1.78-.23,2.57-.4a14.52,14.52,0,0,0,2.12-.58,4.63,4.63,0,0,0,1.35-.71,4.63,4.63,0,0,1-1.35.71,14.52,14.52,0,0,1-2.12.58c-.79.17-1.67.3-2.57.4S33.27,21.17,32.35,21.17Z"/></g></g><g class="cls-2"><polygon class="cls-1" points="41.15 19.34 41.15 19.34 41.15 19.34 41.15 19.34 41.15 19.34 41.15 19.34 41.15 19.34 41.15 19.34 41.15 19.34"/><g class="cls-36"><g class="cls-2"><path class="cls-1" d="M41.15,19.34a1.1,1.1,0,0,0,.21-.23.53.53,0,0,0,.11-.21.46.46,0,0,0,0-.2.56.56,0,0,0-.08-.2.56.56,0,0,1,.08.2.46.46,0,0,1,0,.2.53.53,0,0,1-.11.21A1.1,1.1,0,0,1,41.15,19.34Z"/></g><polygon class="cls-1" points="41.15 19.34 41.15 19.34 41.15 19.34 41.15 19.34 41.15 19.34 41.15 19.34 41.15 19.34 41.15 19.34 41.15 19.34"/></g></g><g class="cls-2"><path class="cls-1" d="M41.15,19.34a1.56,1.56,0,0,0,.22-.23.67.67,0,0,0,.1-.21.46.46,0,0,0,0-.2.56.56,0,0,0-.08-.2.56.56,0,0,1,.08.2.46.46,0,0,1,0,.2.67.67,0,0,1-.1.21A1.56,1.56,0,0,1,41.15,19.34Z"/><g class="cls-37"><g class="cls-2"><path class="cls-1" d="M41.15,19.34a1.1,1.1,0,0,0,.21-.23.53.53,0,0,0,.11-.21.46.46,0,0,0,0-.2.56.56,0,0,0-.08-.2.56.56,0,0,1,.08.2.46.46,0,0,1,0,.2.53.53,0,0,1-.11.21A1.1,1.1,0,0,1,41.15,19.34Z"/></g><path class="cls-1" d="M41.15,19.34a1.56,1.56,0,0,0,.22-.23.67.67,0,0,0,.1-.21.46.46,0,0,0,0-.2.56.56,0,0,0-.08-.2.56.56,0,0,1,.08.2.46.46,0,0,1,0,.2.67.67,0,0,1-.1.21A1.56,1.56,0,0,1,41.15,19.34Z"/></g></g><g class="cls-2"><path class="cls-1" d="M41.4,18.5,72.94,8.17Z"/><g class="cls-38"><path class="cls-1" d="M41.4,18.5,72.94,8.17Z"/></g></g><g class="cls-2"><polygon class="cls-1" points="72.94 8.17 72.94 8.17 72.94 8.17 72.94 8.17 72.94 8.17 72.94 8.17 72.94 8.17 72.94 8.17 72.94 8.17"/><g class="cls-39"><g class="cls-2"><path class="cls-1" d="M72.94,8.17l.12,0h.12l.13,0h0l-.13,0h-.12Z"/></g><polygon class="cls-1" points="72.94 8.17 72.94 8.17 72.94 8.17 72.94 8.17 72.94 8.17 72.94 8.17 72.94 8.17 72.94 8.17 72.94 8.17"/></g></g><g class="cls-2"><path class="cls-1" d="M72.94,8.17l.12,0h.13l.12,0h0l-.12,0h-.13Z"/><g class="cls-40"><g class="cls-2"><path class="cls-1" d="M72.94,8.17l.12,0h.12l.13,0h0l-.13,0h-.12Z"/></g><path class="cls-1" d="M72.94,8.17l.12,0h.13l.12,0h0l-.12,0h-.13Z"/></g></g><g class="cls-2"><path class="cls-1" d="M73.44,8.23,63.12,17.62Z"/><g class="cls-41"><path class="cls-1" d="M73.44,8.23,63.12,17.62Z"/></g></g><g class="cls-2"><polygon class="cls-1" points="63.11 17.62 63.12 17.62 63.12 17.62 63.12 17.62 63.12 17.62 63.12 17.62 63.12 17.62 63.12 17.62 63.11 17.62"/><g class="cls-42"><g class="cls-2"><path class="cls-1" d="M63.12,17.62c-.73.06-1.44.15-2.12.26s-1.31.24-1.89.39a11.12,11.12,0,0,0-1.51.5,4.06,4.06,0,0,0-1,.58,4.06,4.06,0,0,1,1-.58,11.12,11.12,0,0,1,1.51-.5Q60,18,61,17.88C61.68,17.77,62.39,17.68,63.12,17.62Z"/></g><polygon class="cls-1" points="63.11 17.62 63.12 17.62 63.12 17.62 63.12 17.62 63.12 17.62 63.12 17.62 63.12 17.62 63.12 17.62 63.11 17.62"/></g></g><g class="cls-2"><path class="cls-1" d="M63.11,17.62c-.73.06-1.44.15-2.12.26s-1.31.24-1.88.39a11.29,11.29,0,0,0-1.52.5,4.17,4.17,0,0,0-1,.58,4.17,4.17,0,0,1,1-.58,11.29,11.29,0,0,1,1.52-.5c.57-.15,1.21-.28,1.88-.39S62.38,17.68,63.11,17.62Z"/><g class="cls-43"><g class="cls-2"><path class="cls-1" d="M63.12,17.62c-.73.06-1.44.15-2.12.26s-1.31.24-1.89.39a11.12,11.12,0,0,0-1.51.5,4.06,4.06,0,0,0-1,.58,4.06,4.06,0,0,1,1-.58,11.12,11.12,0,0,1,1.51-.5Q60,18,61,17.88C61.68,17.77,62.39,17.68,63.12,17.62Z"/></g><path class="cls-1" d="M63.11,17.62c-.73.06-1.44.15-2.12.26s-1.31.24-1.88.39a11.29,11.29,0,0,0-1.52.5,4.17,4.17,0,0,0-1,.58,4.17,4.17,0,0,1,1-.58,11.29,11.29,0,0,1,1.52-.5c.57-.15,1.21-.28,1.88-.39S62.38,17.68,63.11,17.62Z"/></g></g><g class="cls-2"><polygon class="cls-1" points="56.59 19.36 56.59 19.36 56.59 19.36 56.59 19.36 56.6 19.35 56.59 19.36 56.59 19.36 56.59 19.36 56.59 19.36"/><g class="cls-44"><g class="cls-2"><path class="cls-1" d="M56.6,19.35c-.29.26-.38.5-.29.72a1.31,1.31,0,0,0,.77.59,7,7,0,0,0,1.68.4,17.73,17.73,0,0,0,2.46.15,17.73,17.73,0,0,1-2.46-.15,7,7,0,0,1-1.68-.4,1.31,1.31,0,0,1-.77-.59C56.22,19.85,56.31,19.61,56.6,19.35Z"/></g><polygon class="cls-1" points="56.59 19.36 56.59 19.36 56.59 19.36 56.59 19.36 56.6 19.35 56.59 19.36 56.59 19.36 56.59 19.36 56.59 19.36"/></g></g><g class="cls-2"><path class="cls-1" d="M56.59,19.36c-.28.25-.37.49-.28.71a1.24,1.24,0,0,0,.77.59,7,7,0,0,0,1.69.4,17.48,17.48,0,0,0,2.45.15,17.48,17.48,0,0,1-2.45-.15,7,7,0,0,1-1.69-.4,1.24,1.24,0,0,1-.77-.59C56.22,19.85,56.31,19.61,56.59,19.36Z"/><g class="cls-45"><g class="cls-2"><path class="cls-1" d="M56.6,19.35c-.29.26-.38.5-.29.72a1.31,1.31,0,0,0,.77.59,7,7,0,0,0,1.68.4,17.73,17.73,0,0,0,2.46.15,17.73,17.73,0,0,1-2.46-.15,7,7,0,0,1-1.68-.4,1.31,1.31,0,0,1-.77-.59C56.22,19.85,56.31,19.61,56.6,19.35Z"/></g><path class="cls-1" d="M56.59,19.36c-.28.25-.37.49-.28.71a1.24,1.24,0,0,0,.77.59,7,7,0,0,0,1.69.4,17.48,17.48,0,0,0,2.45.15,17.48,17.48,0,0,1-2.45-.15,7,7,0,0,1-1.69-.4,1.24,1.24,0,0,1-.77-.59C56.22,19.85,56.31,19.61,56.59,19.36Z"/></g></g></g><path class="cls-1" d="M72.34,41.92,83.63,32c.71-.06,1.42-.15,2.08-.26a17.2,17.2,0,0,0,1.85-.38,9.69,9.69,0,0,0,1.49-.48,3.79,3.79,0,0,0,1-.55c.28-.24.37-.47.28-.68a1.19,1.19,0,0,0-.74-.55A6.61,6.61,0,0,0,88,28.69a18,18,0,0,0-2.36-.14c-.89,0-1.8.05-2.68.14s-1.72.22-2.5.38a14.79,14.79,0,0,0-2,.55,4.44,4.44,0,0,0-1.32.68.74.74,0,0,0-.34.55.64.64,0,0,0,.35.48,3.22,3.22,0,0,0,1,.38,9.63,9.63,0,0,0,1.48.25l-8.74,7.35H29.25L20.51,32A9.63,9.63,0,0,0,22,31.71a3.22,3.22,0,0,0,1-.38.64.64,0,0,0,.35-.48A.74.74,0,0,0,23,30.3a4.44,4.44,0,0,0-1.32-.68,14.79,14.79,0,0,0-2-.55c-.78-.16-1.63-.29-2.5-.38s-1.79-.13-2.68-.14a18,18,0,0,0-2.36.14,6.61,6.61,0,0,0-1.62.37,1.19,1.19,0,0,0-.74.55c-.09.21,0,.44.28.68a3.79,3.79,0,0,0,1,.55,9.69,9.69,0,0,0,1.49.48,17.2,17.2,0,0,0,1.85.38c.66.11,1.37.2,2.08.26L27.74,42Z"/></svg>