<?xml version="1.0" encoding="utf-8"?>
<!-- Generator: Adobe Illustrator 25.3.1, SVG Export Plug-In . SVG Version: 6.00 Build 0)  -->
<svg version="1.1" id="レイヤー_1" xmlns="http://www.w3.org/2000/svg" xmlns:xlink="http://www.w3.org/1999/xlink" x="0px"
	 y="0px" viewBox="0 0 640 512" style="enable-background:new 0 0 640 512;" xml:space="preserve">
<style type="text/css">
	.st0{fill:#5C6B6E;}
</style>
<g id="icomoon-ignore">
</g>
<path class="st0" d="M616,0H424c-13.2,0-31.6,7.6-41,17L145,255c-9.3,9.3-9.3,24.6,0,33.9L351,495c9.3,9.3,24.6,9.3,33.9,0L623,257
	c9.3-9.3,17-27.8,17-41V24C640,10.8,629.2,0,616,0L616,0z M496,192c-26.5,0-48-21.5-48-48s21.5-48,48-48s48,21.5,48,48
	S522.5,192,496,192z"/>
<path class="st0" d="M64,272L336,0h-40c-13.2,0-31.6,7.6-41,17L17,255c-9.3,9.3-9.3,24.6,0,33.9L223,495c9.3,9.3,24.6,9.3,33.9,0
	l15-15L64,272z"/>
</svg>
