<?xml version="1.0" encoding="utf-8"?>
<!-- Generator: Adobe Illustrator 25.3.1, SVG Export Plug-In . SVG Version: 6.00 Build 0)  -->
<svg version="1.1" id="レイヤー_1" xmlns="http://www.w3.org/2000/svg" xmlns:xlink="http://www.w3.org/1999/xlink" x="0px"
	 y="0px" viewBox="0 0 768 768" style="enable-background:new 0 0 768 768;" xml:space="preserve">
<g id="icomoon-ignore">
</g>
<path class="st0" d="M544,224h114.8L432,450.8L294.6,313.4c-12.5-12.5-32.8-12.5-45.2,0l-240,240c-12.5,12.5-12.5,32.8,0,45.2
	s32.8,12.5,45.2,0L272,381.2l137.4,137.4c12.5,12.5,32.8,12.5,45.2,0L704,269.2V384c0,17.7,14.3,32,32,32s32-14.3,32-32V192
	c0-4.4-0.9-8.5-2.4-12.3s-3.9-7.3-6.9-10.3c0,0,0,0-0.1-0.1c-2.9-2.9-6.5-5.3-10.3-6.9c-3.8-1.6-7.9-2.4-12.3-2.4H544
	c-17.7,0-32,14.3-32,32S526.3,224,544,224L544,224z"/>
</svg>
